<svg width="131" height="48" viewBox="0 0 131 48" fill="none" xmlns="http://www.w3.org/2000/svg">
<g clip-path="url(#clip0_2743_10223)">
<path d="M130.239 25.7647C129.732 24.3931 129.008 23.225 128.067 22.2628C127.125 21.3002 125.994 20.5519 124.672 20.017C123.35 19.4823 121.875 19.2148 120.246 19.2148C118.291 19.2148 116.625 19.5624 115.25 20.2579C113.873 20.9532 112.84 21.6926 112.154 22.4766V19.7031C110.846 20.6225 108.063 21.302 104.712 21.4666V47.1257H112.263V32.1544C112.263 30.2295 112.823 28.7326 113.946 27.6628C115.068 26.5937 116.553 26.0591 118.399 26.0591C120.029 26.0591 121.287 26.567 122.175 27.5827C123.061 28.5988 123.505 29.9269 123.505 31.5661V47.1257H131V30.283C131 28.6437 130.747 27.1379 130.239 25.7647ZM94.1219 47.1257H101.671V21.4726C98.2761 21.3187 95.4498 20.6366 94.1219 19.7102V47.1257ZM75.7637 47.1255V19.6962H83.3141V23.4388C84.2549 22.1918 85.4051 21.1931 86.762 20.445C88.1203 19.6962 89.6681 19.3218 91.4067 19.3218V26.8077C88.6172 26.8077 86.5806 27.5117 85.2967 28.9198C84.0098 30.3281 83.3687 32.2259 83.3687 34.614V47.1255H75.7637ZM57.6786 40.9233C58.7651 40.9233 59.7695 40.736 60.6932 40.3618C61.6166 39.9873 62.4211 39.4622 63.1102 38.7845C63.7966 38.1082 64.3318 37.3233 64.7122 36.432C65.0925 35.5415 65.282 34.5788 65.282 33.5449C65.282 32.5469 65.0832 31.5926 64.6844 30.6841C64.2853 29.775 63.7435 28.9913 63.0559 28.3314C62.3667 27.6719 61.5624 27.147 60.6388 26.7541C59.7152 26.3623 58.7281 26.166 57.6786 26.166C56.6277 26.166 55.6589 26.3623 54.7725 26.7541C53.8846 27.147 53.116 27.6719 52.4642 28.3314C51.8123 28.9913 51.2967 29.775 50.9164 30.6841C50.5362 31.5926 50.3466 32.5469 50.3466 33.5449C50.3466 34.5788 50.5362 35.5415 50.9164 36.432C51.2967 37.3233 51.8123 38.1082 52.4642 38.7845C53.116 39.4622 53.8846 39.9873 54.7725 40.3618C55.6589 40.736 56.6277 40.9233 57.6786 40.9233ZM65.1733 45.0938C64.1954 45.8428 62.9921 46.4303 61.5624 46.8582C60.1313 47.2861 58.6193 47.5 57.0266 47.5C55.1078 47.5 53.2976 47.1431 51.5949 46.4303C49.8935 45.7181 48.4093 44.7378 47.1423 43.4899C45.8744 42.2422 44.8606 40.7718 44.0998 39.0787C43.3393 37.3861 42.9605 35.5415 42.9605 33.5449C42.9605 31.5848 43.3393 29.7403 44.0998 28.0106C44.8606 26.2822 45.8744 24.7849 47.1423 23.5189C48.4093 22.2545 49.8935 21.2558 51.5949 20.5252C53.2976 19.7946 55.1078 19.4286 57.0266 19.4286C58.6193 19.4286 60.1313 19.6516 61.5624 20.0972C62.9921 20.5436 64.1954 21.1395 65.1733 21.8885V10.5H72.7225V47.1255H65.1733V45.0938ZM32.8033 10.5H40.4082V47.1255H32.8033V10.5ZM14.7181 26.166C13.6674 26.166 12.6985 26.3623 11.8121 26.7541C10.9244 27.147 10.1558 27.6719 9.50376 28.3314C8.85176 28.9913 8.33624 29.775 7.95618 30.6841C7.57572 31.5926 7.38639 32.5469 7.38639 33.5449C7.38639 34.5788 7.57572 35.5415 7.95618 36.432C8.33624 37.3233 8.85176 38.1082 9.50376 38.7845C10.1558 39.4622 10.9244 39.9873 11.8121 40.3618C12.6985 40.736 13.6674 40.9233 14.7181 40.9233C15.8048 40.9233 16.8092 40.736 17.7328 40.3618C18.6564 39.9873 19.4607 39.4622 20.1497 38.7845C20.8361 38.1082 21.3714 37.3233 21.7517 36.432C22.1323 35.5415 22.3218 34.5788 22.3218 33.5449C22.3218 32.5469 22.1229 31.5926 21.7241 30.6841C21.3251 29.775 20.7833 28.9913 20.0955 28.3314C19.4063 27.6719 18.6021 27.147 17.6785 26.7541C16.7548 26.3623 15.7676 26.166 14.7181 26.166ZM22.2131 45.0938C21.2351 45.8428 20.0319 46.4303 18.6021 46.8582C17.1709 47.2861 15.659 47.5 14.0661 47.5C12.1474 47.5 10.3374 47.1431 8.63449 46.4303C6.93302 45.7181 5.44902 44.7378 4.18209 43.4899C2.91394 42.2422 1.90031 40.7718 1.13959 39.0787C0.379059 37.3861 0 35.5415 0 33.5449C0 31.5848 0.379059 29.7403 1.13959 28.0106C1.90031 26.2822 2.91394 24.7849 4.18209 23.5189C5.44902 22.2545 6.93302 21.2558 8.63449 20.5252C10.3374 19.7946 12.1474 19.4286 14.0661 19.4286C15.659 19.4286 17.1709 19.6516 18.6021 20.0972C20.0319 20.5436 21.2351 21.1395 22.2131 21.8885V19.6962H29.7621V47.1255H22.2131V45.0938Z" fill="#F7FAFD"/>
<path d="M109.47 9.93634L109.37 11.0585L109.193 12.1729L108.941 13.2751L108.932 13.3066L108.92 13.3376L108.907 13.3676L108.891 13.3972L108.873 13.4256L108.853 13.453L108.832 13.4793L108.809 13.5042L108.784 13.5277L108.757 13.55L108.73 13.5706L108.7 13.5896L108.67 13.607L108.055 13.91L107.421 14.1778L106.77 14.4091L106.105 14.6036L105.427 14.7598L104.74 14.8776L104.047 14.9565L103.362 14.9936L103.349 14.9959H103H102.651L102.639 14.9936L101.953 14.9565L101.259 14.8776L100.573 14.7598L99.895 14.6036L99.2298 14.4091L98.5784 14.1778L97.9446 13.91L97.33 13.607L97.2998 13.5896L97.2703 13.5706L97.2423 13.55L97.2162 13.5277L97.1911 13.5042L97.168 13.4793L97.1467 13.453L97.1269 13.4256L97.1092 13.3972L97.0935 13.3676L97.0799 13.3376L97.0683 13.3066L97.0586 13.2751L96.8065 12.1729L96.6302 11.0585L96.5301 9.93634L96.5067 8.81068L96.56 7.68584L96.69 6.56632L96.8961 5.45619L96.904 5.42575L96.9137 5.39553L96.922 5.3747L96.9254 5.36593L96.939 5.33713L96.9548 5.30915L97.1807 4.95728L97.4311 4.61971L97.7054 4.29765L98.002 3.99255L98.1275 3.87921L98.3197 3.70563L98.6575 3.43829L99.0134 3.19119L99.3863 2.96594L99.7746 2.76315L100.176 2.58385L100.59 2.42885L101.014 2.29855L101.447 2.19359L101.886 2.11456L102.33 2.06146L102.776 2.03511H103H103.224L103.67 2.06146L104.114 2.11456L104.553 2.19359L104.986 2.29855L105.41 2.42885L105.824 2.58385L106.225 2.76315L106.614 2.96594L106.987 3.19119L107.342 3.43829L107.68 3.70563L107.872 3.87921L107.998 3.99255L108.294 4.29765L108.569 4.61971L108.819 4.95728L109.045 5.30915L109.061 5.33713L109.075 5.36593L109.078 5.3747L109.086 5.39553L109.096 5.42575L109.104 5.45619L109.31 6.56632L109.44 7.68584L109.493 8.81068L109.47 9.93634ZM111.995 7.70689L111.985 7.61049L111.968 7.51532L111.946 7.42098L111.917 7.32826L111.883 7.23759L111.843 7.14915L111.797 7.06318L111.746 6.98028L111.691 6.90042L111.629 6.82425L111.564 6.75195L111.494 6.68375L111.42 6.62003L111.341 6.56081L111.26 6.50648L111.144 6.4393L111.114 6.41948L111.086 6.39804L111.059 6.37476L111.033 6.35005L111.01 6.32391L110.987 6.29614L110.967 6.26714L110.949 6.23691L110.932 6.20566L110.918 6.17361L110.905 6.14072L110.817 5.9073L110.713 5.68022L110.594 5.46028L110.46 5.2483L110.313 5.04529L110.153 4.85211L109.98 4.66973L109.795 4.49902L109.6 4.34012L109.575 4.31991L109.551 4.29826L109.528 4.2754L109.507 4.25129L109.487 4.22597L109.468 4.19963L109.451 4.17226L109.204 3.77628L108.931 3.39663L108.634 3.03477L108.314 2.69209L107.973 2.37024L107.611 2.07023L107.23 1.79352L106.833 1.54131L106.419 1.31422L105.992 1.11368L105.553 0.940093L105.103 0.794484L104.645 0.677262L104.18 0.588836L103.71 0.529612L103.237 0.5H103H102.763L102.29 0.529612L101.82 0.588836L101.355 0.677262L100.897 0.794484L100.447 0.940093L100.008 1.11368L99.5805 1.31422L99.1672 1.54131L98.7695 1.79352L98.3891 2.07023L98.0274 2.37024L97.6859 2.69209L97.3661 3.03477L97.069 3.39663L96.7962 3.77628L96.5488 4.17226L96.5319 4.19963L96.5133 4.22597L96.4934 4.25129L96.4721 4.2754L96.4494 4.29826L96.4255 4.31991L96.4001 4.34012L96.2044 4.49902L96.0199 4.66973L95.8472 4.85211L95.6868 5.04529L95.5395 5.2483L95.4063 5.46028L95.2873 5.68022L95.1834 5.9073L95.0946 6.14072L95.0823 6.17361L95.0675 6.20566L95.0511 6.23691L95.0328 6.26714L95.0124 6.29614L94.9905 6.32391L94.9664 6.35005L94.941 6.37476L94.914 6.39804L94.8856 6.41948L94.856 6.4393L94.7402 6.50648L94.6586 6.56081L94.5803 6.62003L94.506 6.68375L94.4363 6.75195L94.3704 6.82425L94.3095 6.90042L94.2536 6.98028L94.2028 7.06318L94.1572 7.14915L94.1173 7.23759L94.0828 7.32826L94.0542 7.42098L94.0317 7.51532L94.0151 7.61049L94.0045 7.70689L94 7.80347L94.0015 7.90027L94.2036 12.3181L94.2088 12.3853L94.2182 12.4523L94.2318 12.5187L94.2493 12.5838L94.2708 12.648L94.2966 12.7107L94.3261 12.7719L94.3594 12.8309L94.3962 12.8881L94.4742 12.9939L94.5584 13.095L94.6489 13.1908L94.7452 13.281L94.8467 13.3654L94.9533 13.4436L95.0944 13.5345L95.1228 13.5553L95.15 13.578L95.1756 13.6021L95.1996 13.6278L95.222 13.6548L95.2428 13.6831L95.2614 13.7128L95.2785 13.7434L95.2936 13.7748L95.4514 14.1692L95.6181 14.5219C95.742 14.7477 98.5319 16.8304 98.5319 16.8304C98.5319 16.8304 99.9802 17.5 103 17.5C106.02 17.5 107.468 16.8304 107.468 16.8304C107.468 16.8304 110.258 14.7477 110.382 14.5219L110.549 14.1692L110.706 13.7748L110.721 13.7434L110.738 13.7128L110.757 13.6831L110.778 13.6548L110.8 13.6278L110.825 13.6021L110.85 13.578L110.877 13.5553L110.906 13.5345L111.047 13.4436L111.153 13.3654L111.255 13.281L111.351 13.1908L111.441 13.095L111.526 12.9939L111.604 12.8881L111.641 12.8309L111.674 12.7719L111.703 12.7107L111.729 12.648L111.751 12.5838L111.768 12.5187L111.782 12.4523L111.791 12.3853L111.796 12.3181L111.998 7.90027L112 7.80347L111.995 7.70689Z" fill="#F7FAFD"/>
<path d="M106.807 9.5H105.955C105.848 9.5 105.762 9.60494 105.762 9.73404V10.4455C105.762 10.5751 105.719 10.6996 105.644 10.7913L105.589 10.857C105.514 10.9487 105.411 11 105.304 11H101.696C101.589 11 101.486 10.9487 101.411 10.857L101.356 10.7913C101.281 10.6996 101.238 10.5751 101.238 10.4455V9.73404C101.238 9.60494 101.152 9.5 101.045 9.5H100.193C100.087 9.5 100 9.60494 100 9.73404V10.7659C100 10.8953 100.087 11 100.193 11H100.835C100.942 11 101.044 11.0515 101.12 11.1433C101.196 11.235 101.238 11.3595 101.238 11.4891V12.244C101.238 12.3848 101.333 12.5 101.449 12.5H101.45H105.55H105.55C105.667 12.5 105.762 12.3848 105.762 12.244V11.4891C105.762 11.3595 105.804 11.235 105.88 11.1433C105.956 11.0515 106.058 11 106.165 11H106.807C106.913 11 107 10.8953 107 10.7659V9.73404C107 9.60494 106.913 9.5 106.807 9.5Z" fill="#F7FAFD"/>
</g>
<defs>
<clipPath id="clip0_2743_10223">
<rect width="131" height="48" fill="white"/>
</clipPath>
</defs>
</svg>
