<svg width="22" height="22" viewBox="0 0 22 22" fill="none" xmlns="http://www.w3.org/2000/svg">
<circle cx="11.0006" cy="11.0006" r="8.46154" fill="white"/>
<g clip-path="url(#clip0_3628_5231)">
<path fill-rule="evenodd" clip-rule="evenodd" d="M0.917969 10.9993C0.917969 5.43048 5.43243 0.916016 11.0013 0.916016C16.5702 0.916016 21.0846 5.43048 21.0846 10.9993C21.0846 16.5682 16.5702 21.0827 11.0013 21.0827C5.43243 21.0827 0.917969 16.5682 0.917969 10.9993ZM15.7745 7.60117C16.1325 7.95915 16.1325 8.53955 15.7745 8.89753L10.2745 14.3975C9.9165 14.7555 9.3361 14.7555 8.97812 14.3975L6.22812 11.6475C5.87014 11.2896 5.87014 10.7091 6.22812 10.3512C6.5861 9.99319 7.1665 9.99319 7.52448 10.3512L9.6263 12.453L14.4781 7.60117C14.8361 7.24319 15.4165 7.24319 15.7745 7.60117Z" fill="#67C23A"/>
</g>
<defs>
<clipPath id="clip0_3628_5231">
<rect width="22" height="22" fill="white"/>
</clipPath>
</defs>
</svg>
