<svg width="283" height="94" viewBox="0 0 283 94" fill="none" xmlns="http://www.w3.org/2000/svg">
<g clip-path="url(#clip0_3766_14510)">
<mask id="mask0_3766_14510" style="mask-type:luminance" maskUnits="userSpaceOnUse" x="0" y="0" width="283" height="94">
<path d="M283 0H0V94H283V0Z" fill="white"/>
</mask>
<g mask="url(#mask0_3766_14510)">
<path d="M80.4898 39.0071C78.6293 39.0071 77.5128 39.4464 77.5128 41.4978H80.4898V46.5908H77.5128V59.1818H72.2413V46.5908H69.8867V41.4978H72.2413C72.2413 36.5462 74.7123 33.9141 80.4898 33.9141V39.0071Z" fill="white"/>
<path d="M89.2308 59.6762C84.0647 59.6762 79.918 55.6089 79.918 50.3391C79.918 45.0692 84.0647 41.002 89.2308 41.002C94.397 41.002 98.5441 45.0692 98.5441 50.3391C98.5441 55.6089 94.397 59.6762 89.2308 59.6762ZM89.2308 54.5125C91.5155 54.5125 93.2724 52.8502 93.2724 50.3391C93.2724 47.828 91.5155 46.1657 89.2308 46.1657C86.9471 46.1657 85.1893 47.828 85.1893 50.3391C85.1893 52.8502 86.9471 54.5125 89.2308 54.5125Z" fill="white"/>
<path d="M115.58 59.1801H109.535L106.266 54.5115L102.998 59.1801H96.9531L103.244 50.1966L97.1642 41.4961H103.208L106.266 45.8818L109.323 41.4961H115.369L109.289 50.1966L115.58 59.1801Z" fill="white"/>
<path d="M116.117 59.1801V41.4961H121.389V59.1801H116.117Z" fill="white"/>
<path d="M127.669 52.4611C128.337 54.3002 129.954 54.9369 131.887 54.9369C133.328 54.9369 134.919 54.194 135.623 53.416L139.477 56.0333C137.756 58.4383 135.155 59.6762 131.817 59.6762C125.807 59.6762 122.082 55.6089 122.082 50.3391C122.082 45.0692 125.877 41.002 131.43 41.002C136.56 41.002 140.356 44.9985 140.356 50.3391C140.356 51.0818 140.286 51.7891 140.145 52.4611H127.669ZM127.564 48.5H135.12C134.558 46.4486 132.977 45.7059 131.394 45.7059C129.392 45.7059 128.056 46.6962 127.564 48.5Z" fill="white"/>
<path d="M155.189 46.6608C155.189 48.6768 163.835 47.3328 163.835 53.8758C163.835 57.9432 160.32 59.6762 156.525 59.6762C153.01 59.6762 150.34 58.3323 148.969 55.4674L153.537 52.8502C153.995 54.1942 154.978 54.9369 156.525 54.9369C157.79 54.9369 158.422 54.5478 158.422 53.8405C158.422 51.8952 149.778 52.921 149.778 46.8022C149.778 42.9472 153.01 41.002 156.665 41.002C159.512 41.002 162.042 42.2752 163.518 44.7863L159.02 47.2266C158.528 46.3071 157.825 45.6705 156.665 45.6705C155.752 45.6705 155.189 46.0242 155.189 46.6608Z" fill="white"/>
<path d="M173.325 59.6762C168.159 59.6762 164.012 55.6089 164.012 50.3391C164.012 45.0692 168.159 41.002 173.325 41.002C178.491 41.002 182.638 45.0692 182.638 50.3391C182.638 55.6089 178.491 59.6762 173.325 59.6762ZM173.325 54.5125C175.61 54.5125 177.367 52.8502 177.367 50.3391C177.367 47.828 175.61 46.1657 173.325 46.1657C171.04 46.1657 169.283 47.828 169.283 50.3391C169.283 52.8502 171.04 54.5125 173.325 54.5125Z" fill="white"/>
<path d="M184.211 59.1804V36.5449H189.483V59.1804H184.211Z" fill="white"/>
<path d="M203.289 41.4961H208.561V59.1801H203.289V57.5178C202.34 58.8264 200.583 59.6752 198.263 59.6752C194.714 59.6752 191.691 57.1288 191.691 52.354V41.4961H196.963V51.576C196.963 53.7688 198.334 54.7945 200.021 54.7945C201.954 54.7945 203.289 53.6627 203.289 51.1516V41.4961Z" fill="white"/>
<path d="M221.316 46.5894H217.696V52.8495C217.696 54.3703 218.997 54.5118 221.316 54.3703V59.1804C214.427 59.8878 212.425 57.801 212.425 52.8495V46.5894H209.613V41.4964H212.425V36.5449H217.696V41.4964H221.316V46.5894Z" fill="white"/>
<path d="M222.895 59.1801V41.4961H228.166V59.1801H222.895Z" fill="white"/>
<path d="M239.055 59.6762C233.888 59.6762 229.742 55.6089 229.742 50.3391C229.742 45.0692 233.888 41.002 239.055 41.002C244.221 41.002 248.368 45.0692 248.368 50.3391C248.368 55.6089 244.221 59.6762 239.055 59.6762ZM239.055 54.5125C241.339 54.5125 243.096 52.8502 243.096 50.3391C243.096 47.828 241.339 46.1657 239.055 46.1657C236.771 46.1657 235.013 47.828 235.013 50.3391C235.013 52.8502 236.771 54.5125 239.055 54.5125Z" fill="white"/>
<path d="M260.239 41.002C263.788 41.002 266.811 43.5484 266.811 48.3231V59.1811H261.539V49.1012C261.539 46.9083 260.168 45.8827 258.481 45.8827C256.549 45.8827 255.213 47.0145 255.213 49.5256V59.1811H249.941V41.4971H255.213V43.1593C256.162 41.8508 257.919 41.002 260.239 41.002Z" fill="white"/>
<path d="M274.014 46.6608C274.014 48.6768 282.659 47.3328 282.659 53.8758C282.659 57.9432 279.144 59.6762 275.349 59.6762C271.835 59.6762 269.164 58.3323 267.793 55.4674L272.362 52.8502C272.819 54.1942 273.803 54.9369 275.349 54.9369C276.614 54.9369 277.247 54.5478 277.247 53.8405C277.247 51.8952 268.602 52.921 268.602 46.8022C268.602 42.9472 271.835 41.002 275.489 41.002C278.336 41.002 280.867 42.2752 282.342 44.7863L277.844 47.2266C277.353 46.3071 276.649 45.6705 275.489 45.6705C274.576 45.6705 274.014 46.0242 274.014 46.6608Z" fill="white"/>
<path d="M222.367 36.7573C222.367 38.4904 223.808 39.9405 225.53 39.9405C227.252 39.9405 228.693 38.4904 228.693 36.7573C228.693 35.0244 227.252 33.5742 225.53 33.5742C223.808 33.5742 222.367 35.0244 222.367 36.7573Z" fill="#E6530A"/>
<path d="M115.594 36.7417C115.594 38.4747 117.035 39.9248 118.756 39.9248C120.479 39.9248 121.919 38.4747 121.919 36.7417C121.919 35.0086 120.479 33.5586 118.756 33.5586C117.035 33.5586 115.594 35.0086 115.594 36.7417Z" fill="#E6530A"/>
<path d="M21.1025 36.2203C15.6914 38.6995 12.0168 44.7685 9.84375 53.9421C12.1914 57.7854 9.11941 56.5841 11.467 60.4272C13.3297 60.4903 15.5699 60.3565 17.8102 60.2228C20.0502 60.0889 23.6376 59.9373 25.5 60C21.9575 55.7748 25.3847 38.5425 46.0871 42.2784C45.1794 40.7978 45.0584 38.0651 45.0584 38.0651C45.0584 38.0651 37.0453 34.5999 33.0387 32.8672C29.0599 33.985 25.0813 35.1025 21.1025 36.2203Z" fill="white"/>
<path d="M37.915 56.816C33.8669 56.7893 23.7234 56.4451 17.5861 62.7466C16.6287 66.555 15.7697 64.5262 14.8125 68.3344C15.7003 69.0509 16.8839 69.7511 18.0674 70.4511C19.2508 71.1511 20.4341 71.8511 21.322 72.5674C21.8982 68.0358 38.7552 60.144 46.9492 70.4512C47.3164 68.9828 48.7641 66.8301 48.7641 66.8301C48.7641 66.8301 46.7064 61.282 45.6775 58.508C43.09 57.944 40.5026 57.3799 37.915 56.816Z" fill="white"/>
<path d="M19.9765 20.8277L19.8451 27.6999L9.73393 35.1665L4.21875 44.351L6.38542 56.4432L13.148 61.3989L23.2593 60.2756C17.2127 58.7317 14.5825 54.9651 15.2251 50.3513C16.1996 43.3547 22.4142 37.6019 29.3474 37.1973C34.3559 36.9049 40.299 38.6116 46.8302 41.5758C47.5743 40.8049 48.3184 40.0341 49.0627 39.2632C42.292 36.0243 39.3301 33.1502 37.6956 30.4035C35.5973 28.3788 33.499 26.3544 31.4009 24.3299L22.1432 16.8633L19.9765 20.8277Z" fill="url(#paint0_linear_3766_14510)"/>
<path d="M26.4976 57.9153L16.6907 61.7894L6.05859 57.5463L6.7919 63.0808L13.9409 68.892C22.3888 69.2326 27.8837 64.0068 32.378 60.8884C41.8008 54.3507 50.2228 63.8706 45.4702 71.4746L51.4276 65.3868L48.678 55.0559L37.6794 51.5508L26.4976 57.9153Z" fill="url(#paint1_linear_3766_14510)"/>
<path d="M48.6587 38.3203C48.0157 38.3203 47.4166 38.6985 47.0637 39.3454C45.2662 42.646 41.3207 41.2723 38.076 41.2806C32.6542 41.3901 26.1397 45.5129 21.5439 54.4139C21.147 55.4003 21.4138 56.7311 22.394 57.1307C23.3743 57.5303 24.3732 56.6994 24.7704 55.713C28.166 48.7882 34.0405 44.9545 38.076 45.0356C42.4909 45.0244 47.2206 46.2138 50.0988 40.9292C50.6073 39.9969 50.4451 39.0626 49.5187 38.5507C49.2353 38.394 48.9424 38.3203 48.6587 38.3203C48.659 38.3203 48.6585 38.3203 48.6587 38.3203Z" fill="#222631"/>
<path d="M32.9209 33.2469C31.9779 33.3258 30.9367 33.5174 29.875 33.436C31.5432 34.1103 32.0656 35.2328 33.7951 35.819C35.2412 36.3091 36.977 36.3456 38.5042 36.8328C37.9576 36.2797 37.4993 35.6955 37.0111 35.1473C35.756 33.738 34.8642 33.0847 32.9209 33.2469Z" fill="#222631"/>
<path d="M35.4483 72.2657C35.4483 72.2657 39.6557 72.2426 42.1979 71.4772C43.832 70.9851 45.0438 70.3794 46.2158 69.7534C51.2017 66.03 49.8841 56.7626 44.0608 54.5957C38.3303 52.5181 34.7502 54.0926 30.7816 57.018C27.9053 59.1381 25.3117 61.8107 21.8859 63.0252C19.0403 64.0339 16.1051 64.0465 13.4179 63.2159C11.1673 62.5204 9.09958 61.2357 7.41449 59.4527C7.51742 59.6715 7.6254 59.8895 7.73879 60.1068C8.7467 62.0386 9.94927 63.7202 11.3439 65.07C12.6305 66.3152 14.0908 67.2836 15.7231 67.9087C21.4689 70.1093 24.7202 68.2666 29.4669 65.0417C30.0903 64.6183 30.732 64.2302 31.3903 63.887C37.0163 60.9534 44.0817 63.7491 46.2158 69.7534C43.1292 66.5595 35.2782 65.7447 31.6088 68.2373C25.7665 72.2066 21.3821 74.2008 14.36 71.5114C12.2407 70.6996 10.3514 69.4488 8.69281 67.8435C6.99241 66.1977 5.54606 64.1857 4.35377 61.9005C2.53324 58.4113 1.81946 54.7634 1.98908 50.9889C2.52493 39.0611 8.34068 31.9234 18.5707 26.9223C17.5963 23.3238 18.0871 19.5838 19.2721 16.0743C19.6114 15.067 20.3005 14.3843 21.3014 14.7256C22.6232 14.9898 28.1818 19.5611 29.131 20.6918C29.8731 20.1097 32.4563 16.889 34.482 15.4088C36.2762 14.0975 37.2288 14.5717 37.1876 16.8035C37.1732 17.577 37.1223 18.4752 37.0519 19.4075C36.8895 21.5619 36.536 23.724 36.615 25.8813C36.674 27.4931 36.94 29.3476 37.6972 30.4044C35.8374 28.4016 33.3389 26.3576 30.6521 25.6451C29.7586 25.4082 28.8689 25.3043 28.0121 25.2809C25.0612 21.6498 22.6854 20.1924 22.0133 19.6601C21.599 21.0981 21.4866 22.6558 21.765 24.1555C22.2372 26.6987 22.7481 27.2606 24.5097 29.2955C19.3757 30.1796 14.2687 32.9141 10.9063 36.9808C8.49106 39.9021 7.16875 43.3161 6.96616 47.1252C6.87145 48.9068 7.05004 50.8075 7.68957 52.6348C8.13538 53.9085 8.7581 55.0403 9.51457 56.0108C10.8535 57.7284 12.61 58.9411 14.5412 59.538C16.4595 60.1308 18.5636 60.1189 20.6127 59.3924C23.5083 58.3659 26.6368 55.1973 29.1726 53.3725C32.1762 51.2109 35.2337 49.7336 39.3896 49.8358C45.226 49.9794 49.9817 52.2486 52.2315 57.9976C52.7933 59.4335 53.1176 60.9705 53.1851 62.5196C53.3736 66.8447 51.9395 70.1128 47.9466 72.2657C45.9442 73.3454 44.4447 73.6416 42.1979 73.7694C39.4426 73.9261 35.4483 72.2657 35.4483 72.2657Z" fill="#222631"/>
<mask id="mask1_3766_14510" style="mask-type:luminance" maskUnits="userSpaceOnUse" x="-1" y="12" width="57" height="65">
<path d="M55.9688 12.6367H-0.03125V76.6367H55.9688V12.6367Z" fill="white"/>
<path fill-rule="evenodd" clip-rule="evenodd" d="M42.1991 71.4772C39.6568 72.2426 35.4495 72.2657 35.4495 72.2657C39.5183 73.9572 43.9722 74.4093 47.9478 72.2657C51.9407 70.1128 53.3748 66.8447 53.1862 62.5196C52.8569 54.9552 46.818 50.0185 39.3907 49.8358C35.2349 49.7336 32.1774 51.2109 29.1737 53.3725C27.3957 54.6519 25.3264 56.5921 23.2503 57.9912C23.2777 58.2608 23.1984 57.7434 23.2503 57.9912C23.5 57 24.474 56.4492 24.7707 55.7121C28.1664 48.7873 34.0409 44.9536 38.0764 45.0347C42.4912 45.0235 47.2211 46.2128 50.0992 40.9283C50.9518 39.365 49.2712 37.5846 47.7293 38.6047C41.896 35.6327 39.2213 32.9632 37.6985 30.4044C36.9415 29.3474 36.6751 27.4929 36.6161 25.8813C36.5052 22.8488 37.1324 19.8354 37.1888 16.8035C37.2299 14.5717 36.2773 14.0975 34.4831 15.4088C32.4574 16.889 29.8743 20.1097 29.1322 20.6918C28.1829 19.5611 22.6244 14.9898 21.3025 14.7256C20.3016 14.3843 19.6125 15.067 19.2733 16.0743C18.0883 19.5838 17.5974 23.3238 18.5718 26.9223C8.34183 31.9234 2.52608 39.0611 1.99022 50.9889C1.70951 57.2355 4.19415 63.4883 8.69396 67.8435C10.3525 69.4488 12.2419 70.6996 14.3612 71.5114C21.3832 74.2008 25.7677 72.2066 31.61 68.2374C35.2793 65.7447 43.1303 66.5595 46.2169 69.7534C45.0449 70.3794 43.8332 70.9851 42.1991 71.4772ZM37.6969 30.4029C35.8341 28.3973 35.7087 28.4844 37.6969 30.4029Z" fill="black"/>
</mask>
<g mask="url(#mask1_3766_14510)">
<path d="M35.4495 72.2655L35.4385 70.2656L34.6818 74.1123L35.4495 72.2655ZM24.7707 55.7119L22.975 54.8314L22.9428 54.8971L22.9155 54.9649L24.7707 55.7119ZM38.0764 45.0345L38.0362 47.0341L38.0588 47.0345H38.0815L38.0764 45.0345ZM50.0992 40.9281L48.3433 39.9704L48.3428 39.9715L50.0992 40.9281ZM47.7293 38.6045L46.8213 40.3865L47.8603 40.9159L48.8327 40.2725L47.7293 38.6045ZM37.6985 30.4042L39.4172 29.3814L39.3738 29.3086L39.3245 29.2397L37.6985 30.4042ZM29.1322 20.6916L27.6004 21.9776L28.8443 23.4591L30.3665 22.2653L29.1322 20.6916ZM21.3025 14.7254L20.657 16.6184L20.7815 16.6608L20.9105 16.6866L21.3025 14.7254ZM19.2733 16.0741L21.1682 16.7139L21.1687 16.7124L19.2733 16.0741ZM18.5718 26.9221L19.4502 28.7189L20.9339 27.9935L20.5023 26.3994L18.5718 26.9221ZM46.2169 69.7532L47.1592 71.5173L49.4966 70.2688L47.6551 68.3633L46.2169 69.7532ZM37.6969 30.4027L36.3082 31.8419L39.1624 29.0416L37.6969 30.4027ZM35.4495 72.2655C35.4605 74.2655 35.4607 74.2655 35.4609 74.2655C35.4607 74.2655 35.461 74.2655 35.4609 74.2655C35.4612 74.2655 35.4622 74.2655 35.4627 74.2655C35.4636 74.2655 35.4649 74.2655 35.4664 74.2655C35.4693 74.2654 35.4733 74.2654 35.4783 74.2654C35.4883 74.2653 35.5023 74.2652 35.52 74.2649C35.5555 74.2645 35.6062 74.2639 35.6707 74.2627C35.7996 74.2604 35.9838 74.2563 36.2117 74.2489C36.6666 74.2341 37.3003 74.206 38.0187 74.1528C39.4138 74.0495 41.2839 73.8412 42.7757 73.392L41.6225 69.5619C40.572 69.8782 39.0673 70.0642 37.7232 70.1637C37.072 70.212 36.495 70.2376 36.0816 70.251C35.8753 70.2577 35.711 70.2614 35.5998 70.2633C35.5443 70.2643 35.5021 70.2649 35.4747 70.2652C35.461 70.2654 35.451 70.2655 35.4449 70.2655C35.4419 70.2655 35.4396 70.2655 35.4385 70.2656C35.4384 70.2656 35.4384 70.2656 35.4385 70.2656C35.4386 70.2656 35.4385 70.2656 35.4495 72.2655ZM51.1881 62.6064C51.2721 64.5328 50.9875 66.0617 50.3553 67.2946C49.7333 68.5079 48.6954 69.5902 46.9986 70.5051L48.897 74.0259C51.193 72.788 52.8687 71.1598 53.9148 69.1195C54.9508 67.0989 55.2889 64.8311 55.1843 62.4323L51.1881 62.6064ZM30.3419 54.9956C33.145 52.9785 35.7788 51.7474 39.3416 51.835L39.4399 47.8362C34.6909 47.7195 31.2098 49.443 28.0055 51.7489L30.3419 54.9956ZM25.2079 57.5815C25.2029 57.5579 25.1973 57.5317 25.1911 57.5049C25.1861 57.4829 25.1758 57.4391 25.1614 57.3879C25.1547 57.3643 25.14 57.3134 25.1176 57.2508C25.1064 57.2196 25.0865 57.1662 25.0574 57.1017C25.0425 57.0686 25.0211 57.0234 24.9929 56.9713C24.9661 56.9216 24.9224 56.8458 24.8603 56.7589C24.8284 56.7142 24.7863 56.6593 24.7335 56.5994C24.6814 56.5403 24.6098 56.4661 24.5174 56.3887C24.426 56.3121 24.2975 56.2183 24.1306 56.1345C23.9618 56.0497 23.7392 55.968 23.4705 55.9359C23.3672 55.9262 23.1559 55.9232 23.0486 55.9302C22.9397 55.9433 22.7261 55.987 22.622 56.0173C22.3442 56.1064 22.1214 56.2445 21.9523 56.3853C21.7869 56.5232 21.6702 56.6657 21.5908 56.7798C21.5109 56.8946 21.4554 57.0002 21.4175 57.082C21.3791 57.165 21.3518 57.239 21.3325 57.2976C21.313 57.357 21.2987 57.4097 21.2883 57.4528C21.268 57.537 21.2568 57.6077 21.2503 57.6556C21.2436 57.7055 21.2397 57.748 21.2375 57.7799C21.2351 57.8124 21.2339 57.8407 21.2332 57.8632C21.2318 57.9073 21.2322 57.9437 21.2327 57.9682C21.2332 57.9937 21.2341 58.0156 21.235 58.0322C21.2367 58.0647 21.2388 58.0916 21.2404 58.1092C21.2434 58.1444 21.2469 58.1744 21.2492 58.1935C21.254 58.2332 21.2594 58.2712 21.2642 58.3021C21.2688 58.3325 21.2751 58.3713 21.2827 58.412C21.2863 58.431 21.2927 58.464 21.3015 58.503C21.3059 58.5221 21.3135 58.5548 21.3244 58.5946C21.33 58.6149 21.3382 58.6438 21.3492 58.678C21.3592 58.7094 21.3775 58.7641 21.4048 58.8305C21.4188 58.8645 21.4392 58.9116 21.4667 58.9663C21.4926 59.0181 21.536 59.0993 21.5994 59.1928C21.6319 59.2409 21.6757 59.301 21.7316 59.3667C21.7866 59.4314 21.8639 59.514 21.9655 59.5997C22.0662 59.6846 22.2102 59.7892 22.3994 59.8788C22.5922 59.9701 22.8425 60.0505 23.1389 60.0678C23.2504 60.0712 23.4754 60.0591 23.5883 60.0433C23.699 60.0214 23.9128 59.9601 24.0153 59.9212C24.2813 59.812 24.4839 59.6621 24.6293 59.5247C24.7727 59.3892 24.8726 59.2547 24.9393 59.1506C25.0069 59.0452 25.0542 58.9496 25.0865 58.876C25.1194 58.8012 25.1432 58.7348 25.1601 58.6821C25.1772 58.6286 25.19 58.5812 25.1994 58.5423C25.2179 58.4662 25.2287 58.4023 25.2351 58.3584C25.2475 58.2728 25.2519 58.204 25.2537 58.1675C25.2557 58.1265 25.2562 58.0926 25.2562 58.0695C25.2563 58.0242 25.2549 57.9874 25.2539 57.9665C25.2519 57.9236 25.249 57.8865 25.2471 57.864C25.2449 57.8384 25.2425 57.8128 25.24 57.7887L21.2605 58.1934C21.2615 58.2029 21.2616 58.2049 21.2613 58.2015C21.2613 58.2011 21.2595 58.1807 21.2581 58.1501C21.2574 58.1352 21.2561 58.1033 21.2562 58.0618C21.2562 58.0407 21.2566 58.0084 21.2586 57.9688C21.2604 57.9337 21.2646 57.866 21.2769 57.7814C21.2832 57.738 21.2939 57.6744 21.3123 57.5987C21.3217 57.5599 21.3344 57.5126 21.3515 57.4594C21.3684 57.4067 21.3921 57.3405 21.425 57.2658C21.4573 57.1923 21.5045 57.0968 21.572 56.9915C21.6387 56.8875 21.7385 56.7531 21.8819 56.6176C22.0272 56.4802 22.2298 56.3304 22.4957 56.2211C22.5982 56.1823 22.8119 56.121 22.9226 56.0991C23.0355 56.0833 23.2605 56.0712 23.372 56.0746C23.6683 56.0919 23.9185 56.1723 24.1113 56.2636C24.3004 56.3532 24.4444 56.4577 24.5449 56.5425C24.6465 56.6282 24.7237 56.7107 24.7787 56.7753C24.8345 56.841 24.8782 56.9009 24.9107 56.9489C24.9739 57.0422 25.0172 57.1232 25.0429 57.1746C25.0702 57.229 25.0904 57.2757 25.1043 57.3093C25.1312 57.3749 25.1491 57.4286 25.1588 57.4587C25.1694 57.4917 25.1772 57.5192 25.1823 57.5379C25.1923 57.5745 25.1991 57.6034 25.2024 57.6181C25.2093 57.6483 25.2134 57.6701 25.2145 57.6763C25.2162 57.6852 25.2171 57.6908 25.2174 57.6927C25.2178 57.6949 25.218 57.696 25.218 57.6963C25.2181 57.6966 25.2182 57.6975 25.2185 57.6993C25.2187 57.7007 25.2193 57.7054 25.2202 57.7129C25.2209 57.7186 25.223 57.7365 25.2252 57.7618C25.2264 57.7745 25.2282 57.7971 25.2297 57.8258C25.2304 57.8405 25.2313 57.8606 25.2318 57.8847C25.2323 57.9076 25.2326 57.9427 25.2313 57.9855C25.2306 58.0075 25.2294 58.0352 25.2271 58.0673C25.2249 58.0987 25.2211 58.1407 25.2144 58.1902C25.208 58.2377 25.1968 58.308 25.1765 58.3919C25.1662 58.4349 25.152 58.4874 25.1325 58.5467C25.1133 58.6052 25.086 58.6791 25.0476 58.762C25.0098 58.8437 24.9543 58.9492 24.8745 59.0639C24.7952 59.178 24.6784 59.3204 24.5131 59.4582C24.3441 59.599 24.1213 59.7371 23.8436 59.8262C23.7395 59.8565 23.5259 59.9001 23.4171 59.9132C23.3098 59.9202 23.0986 59.9172 22.9953 59.9076C22.7266 59.8754 22.5041 59.7937 22.3354 59.709C22.1686 59.6253 22.0401 59.5315 21.9488 59.455C21.8565 59.3776 21.785 59.3035 21.733 59.2445C21.6802 59.1847 21.6383 59.1299 21.6064 59.0853C21.5444 58.9987 21.501 58.9231 21.4744 58.8739C21.4463 58.822 21.4252 58.7773 21.4104 58.7447C21.3818 58.6811 21.3624 58.6289 21.3517 58.5991C21.3304 58.5395 21.3169 58.4925 21.3116 58.4739C21.3 58.4328 21.2934 58.4036 21.2929 58.4014C21.2914 58.394 21.2913 58.3944 21.2929 58.4014L25.2079 57.5815ZM25.1897 58.4797C25.1878 58.4872 25.1995 58.4119 25.4932 58.0787C25.598 57.9597 25.8278 57.7097 26.0034 57.4908C26.1949 57.252 26.4469 56.9036 26.626 56.459L22.9155 54.9649C22.9461 54.8888 22.9652 54.8857 22.8828 54.9884C22.7844 55.1111 22.6995 55.1989 22.4925 55.4337C22.1626 55.808 21.5625 56.5036 21.3109 57.5024L25.1897 58.4797ZM26.5665 56.5925C28.1303 53.4033 30.249 50.961 32.3903 49.3409C34.5699 47.6919 36.6167 47.0055 38.0362 47.0341L38.1166 43.0349C35.5006 42.9823 32.5924 44.1722 29.9769 46.151C27.3232 48.1588 24.8069 51.0957 22.975 54.8314L26.5665 56.5925ZM48.6372 36.8224C43.0208 33.961 40.688 31.5169 39.4172 29.3814L35.9798 31.427C37.7545 34.4092 40.7712 37.3041 46.8213 40.3865L48.6372 36.8224ZM34.6174 25.9542C34.6496 26.8316 34.7391 27.8198 34.9389 28.7645C35.1322 29.6788 35.4618 30.7159 36.0725 31.5687L39.3245 29.2397C39.1783 29.0355 38.9961 28.6168 38.8523 27.9368C38.7149 27.2871 38.6416 26.5421 38.6148 25.8079L34.6174 25.9542ZM35.6631 17.0234C35.8321 16.8999 35.9696 16.8134 36.0763 16.755C36.1846 16.6957 36.2437 16.6751 36.2576 16.6708C36.2964 16.6588 36.0041 16.7574 35.6143 16.5583C35.4302 16.4643 35.3023 16.34 35.2243 16.236C35.1519 16.1396 35.1329 16.0753 35.1366 16.0865C35.1401 16.0972 35.157 16.1548 35.1709 16.276C35.1845 16.3953 35.193 16.5567 35.1891 16.7664L39.1884 16.8404C39.2009 16.166 39.1446 15.4677 38.9348 14.8323C38.7214 14.1861 38.2847 13.4308 37.4341 12.9962C36.5871 12.5635 35.7228 12.65 35.0796 12.8481C34.4442 13.044 33.8447 13.398 33.303 13.7939L35.6631 17.0234ZM20.9105 16.6866C20.761 16.6567 20.7687 16.6293 21.0239 16.7681C21.2304 16.8804 21.5039 17.0486 21.8372 17.2719C22.501 17.7163 23.3054 18.314 24.1201 18.9552C24.9313 19.5937 25.7292 20.2569 26.3761 20.8238C27.0611 21.424 27.4751 21.8283 27.6004 21.9776L30.6639 19.4056C30.3146 18.9896 29.6778 18.3985 29.0123 17.8153C28.3087 17.1988 27.4563 16.4907 26.594 15.812C25.7352 15.136 24.8429 14.4706 24.0629 13.9483C23.6745 13.6882 23.2895 13.447 22.9352 13.2543C22.6297 13.0881 22.1746 12.8601 21.6946 12.7642L20.9105 16.6866ZM21.1687 16.7124C21.2113 16.5857 21.2528 16.5067 21.2782 16.467C21.3042 16.4264 21.2976 16.4508 21.237 16.4961C21.1682 16.5475 21.0545 16.6062 20.909 16.6281C20.7649 16.6499 20.6714 16.6233 20.657 16.6184L21.9481 12.8324C20.8431 12.4556 19.7278 12.6304 18.8426 13.2919C18.059 13.8775 17.62 14.7169 17.3779 15.4358L21.1687 16.7124ZM20.5023 26.3994C19.6655 23.3088 20.0607 19.9937 21.1682 16.7139L17.3784 15.4343C16.1158 19.1734 15.5294 23.3383 16.6413 27.4448L20.5023 26.3994ZM3.9882 51.0785C4.24161 45.4376 5.73182 41.061 8.27051 37.5241C10.8217 33.9698 14.5327 31.1228 19.4502 28.7189L17.6934 25.1253C12.3809 27.7224 8.06911 30.9449 5.02093 35.1916C1.96028 39.4558 0.274678 44.612 -0.00776211 50.899L3.9882 51.0785ZM15.0766 69.6435C13.2329 68.9373 11.5688 67.8424 10.0849 66.4062L7.30299 69.2804C9.13625 71.0548 11.2508 72.4615 13.6458 73.3789L15.0766 69.6435ZM30.4861 66.5828C27.5921 68.5491 25.2867 69.8601 22.9548 70.428C20.7056 70.9757 18.2708 70.8668 15.0766 69.6435L13.6458 73.3789C17.4737 74.845 20.7421 75.0837 23.9012 74.3144C26.9776 73.5652 29.7857 71.8945 32.7339 69.8915L30.4861 66.5828ZM47.6551 68.3633C45.6512 66.2898 42.3789 65.189 39.3384 64.8734C36.2984 64.5579 32.8704 64.9631 30.4861 66.5828L32.7339 69.8915C34.019 69.0185 36.351 68.5848 38.9255 68.852C41.4995 69.1192 43.6961 70.0227 44.7788 71.143L47.6551 68.3633ZM42.7757 73.392C44.5971 72.8435 45.9446 72.1661 47.1592 71.5173L45.2746 67.9891C44.1452 68.5924 43.0692 69.1262 41.6225 69.5619L42.7757 73.392ZM39.0857 28.9634C38.6002 28.495 38.2521 28.1464 38.0332 27.9202C37.9217 27.8051 37.8536 27.7319 37.8208 27.6953C37.8002 27.6723 37.8118 27.6842 37.8371 27.7161C37.842 27.7222 37.8957 27.7888 37.9555 27.8854C37.9745 27.9161 38.068 28.0648 38.1417 28.2764C38.1744 28.3706 38.2602 28.6325 38.2518 28.9801C38.2426 29.3615 38.0976 30.0848 37.3938 30.5737C36.7845 30.997 36.1723 30.94 35.9678 30.9104C35.7205 30.8747 35.5378 30.8001 35.4612 30.767C35.2971 30.696 35.1813 30.6186 35.1505 30.598C35.0676 30.5426 35.0107 30.4948 35.0042 30.4894C34.9761 30.4661 34.9671 30.4567 34.9899 30.478C35.0274 30.513 35.1005 30.5836 35.2137 30.6974C35.4362 30.9211 35.7771 31.2745 36.2315 31.7638L39.1624 29.0416C38.6854 28.5281 38.312 28.1403 38.0493 27.8762C37.9198 27.746 37.8075 27.6362 37.7183 27.553C37.6777 27.5151 37.62 27.4622 37.5581 27.4109C37.5346 27.3914 37.4646 27.3334 37.3722 27.2717C37.3367 27.248 37.2171 27.1684 37.0501 27.0961C36.9721 27.0624 36.7882 26.9875 36.54 26.9516C36.3345 26.9219 35.7215 26.865 35.1117 27.2886C34.4075 27.7778 34.2622 28.5018 34.253 28.8839C34.2446 29.2324 34.3306 29.4954 34.3638 29.5909C34.4383 29.805 34.5337 29.9573 34.5555 29.9925C34.6209 30.0981 34.684 30.1775 34.702 30.2003C34.7537 30.2654 34.8069 30.3257 34.8432 30.3663C34.9244 30.4568 35.0319 30.5709 35.1592 30.7024C35.4178 30.9695 35.7996 31.3511 36.3082 31.8419L39.0857 28.9634ZM10.0849 66.4062C5.9967 62.4494 3.73322 56.7525 3.9882 51.0785L-0.00776211 50.899C-0.314209 57.7183 2.39157 64.5269 7.30299 69.2804L10.0849 66.4062ZM46.9986 70.5051C43.7367 72.2638 39.9565 71.9732 36.2172 70.4187L34.6818 74.1123C39.0802 75.9408 44.2076 76.5543 48.897 74.0259L46.9986 70.5051ZM39.3416 51.835C45.903 51.9964 50.9122 56.2686 51.1881 62.6064L55.1843 62.4323C54.8016 53.6413 47.733 48.0402 39.4399 47.8362L39.3416 51.835ZM51.855 41.8857C52.7433 40.2571 52.3019 38.4729 51.2356 37.3926C50.1274 36.2697 48.2733 35.8465 46.6258 36.9365L48.8327 40.2725C48.8422 40.2663 48.8226 40.2808 48.774 40.2925C48.7253 40.3041 48.6672 40.308 48.607 40.3C48.4875 40.2841 48.4177 40.2317 48.3887 40.2024C48.3607 40.1741 48.3406 40.1385 48.3326 40.0906C48.3282 40.0642 48.328 40.0361 48.3325 40.0096C48.337 39.9821 48.3444 39.9684 48.3433 39.9704L51.855 41.8857ZM38.0815 47.0345C39.1661 47.0317 40.1303 47.1003 41.3634 47.1307C42.5109 47.159 43.7631 47.1458 45.0071 46.9291C47.6457 46.4697 50.0983 45.1112 51.8556 41.8847L48.3428 39.9715C47.2219 42.0295 45.8705 42.7186 44.321 42.9884C43.4709 43.1365 42.533 43.1583 41.462 43.1319C40.4767 43.1076 39.1941 43.0316 38.0713 43.0345L38.0815 47.0345ZM24.368 59.6496C25.4928 58.8915 26.5944 58.0019 27.5925 57.1829C28.6217 56.3383 29.5187 55.5881 30.3419 54.9956L28.0055 51.7489C27.0508 52.4359 26.0242 53.2955 25.0551 54.0907C24.0551 54.9113 23.0839 55.6914 22.1325 56.3325L24.368 59.6496ZM35.1891 16.7664C35.1628 18.181 35.0037 19.5906 34.8495 21.1445C34.6991 22.6595 34.5565 24.2898 34.6174 25.9542L38.6148 25.8079C38.5647 24.4397 38.6803 23.0472 38.8299 21.5395C38.9757 20.0705 39.1583 18.4578 39.1884 16.8404L35.1891 16.7664ZM30.3665 22.2653C30.7023 22.0019 31.1187 21.5591 31.4615 21.1902C31.8991 20.7193 32.2592 20.3187 32.7886 19.7513C33.7868 18.6815 34.8221 17.6379 35.6631 17.0234L33.303 13.7939C32.1182 14.6595 30.8494 15.9663 29.864 17.0225C29.4016 17.518 28.8502 18.1242 28.5315 18.4672C28.3469 18.6658 28.1949 18.826 28.0728 18.9491C27.9374 19.0855 27.888 19.1256 27.8979 19.1179L30.3665 22.2653Z" fill="white"/>
</g>
</g>
</g>
<defs>
<linearGradient id="paint0_linear_3766_14510" x1="-0.409846" y1="43.3865" x2="30.6131" y2="38.5679" gradientUnits="userSpaceOnUse">
<stop stop-color="#C61215"/>
<stop offset="1" stop-color="#FF8601"/>
</linearGradient>
<linearGradient id="paint1_linear_3766_14510" x1="6.67814" y1="60.7774" x2="49.4893" y2="62.186" gradientUnits="userSpaceOnUse">
<stop stop-color="#C61215"/>
<stop offset="1" stop-color="#FF6415"/>
</linearGradient>
<clipPath id="clip0_3766_14510">
<rect width="283" height="94" fill="white"/>
</clipPath>
</defs>
</svg>
