<svg width="24" height="24" viewBox="0 0 24 24" fill="none" xmlns="http://www.w3.org/2000/svg">
<path fill-rule="evenodd" clip-rule="evenodd" d="M12 1C5.92487 1 1 5.92487 1 12C1 18.0751 5.92487 23 12 23C18.0751 23 23 18.0751 23 12C23 5.92487 18.0751 1 12 1ZM12.0014 7C11.4491 7 11.0014 7.44772 11.0014 8C11.0014 8.55228 11.4491 9 12.0014 9H12.0114C12.5637 9 13.0114 8.55228 13.0114 8C13.0114 7.44772 12.5637 7 12.0114 7H12.0014ZM13.0014 12C13.0014 11.4477 12.5537 11 12.0014 11C11.4491 11 11.0014 11.4477 11.0014 12V16C11.0014 16.5523 11.4491 17 12.0014 17C12.5537 17 13.0014 16.5523 13.0014 16V12Z" fill="#F15048"/>
</svg>
