<svg width="155" height="50" viewBox="0 0 155 50" fill="none" xmlns="http://www.w3.org/2000/svg">
<g clip-path="url(#clip0_3869_14376)">
<path d="M30.8011 40.7313C29.0475 37.1944 27.3184 33.7435 25.6433 30.2673C25.3813 29.6848 25.2488 29.0497 25.2553 28.4079C25.2258 21.2029 25.2553 13.9928 25.2553 6.78265C25.263 6.64217 25.2778 6.50219 25.2995 6.36328C29.9611 7.43444 36.1062 12.6083 37.9041 20.0862C39.9426 28.5443 36.3715 36.6285 30.8011 40.7313Z" fill="white"/>
<path d="M13.1709 6.29688V7.44382C13.1709 14.2952 13.1709 21.1466 13.1365 27.9979C13.12 29.0592 12.8839 30.1048 12.4439 31.0649C10.9212 34.2986 9.27067 37.4666 7.6644 40.6649C2.9733 37.4918 -0.77466 30.4383 0.0947894 22.7887C1.18529 13.1887 8.14579 7.72172 13.1709 6.29688Z" fill="white"/>
<path d="M60.5795 31.4747C53.1818 31.4747 48.3925 26.4928 48.3286 18.8835C48.2746 12.5779 52.5531 6.48943 60.6434 6.45912C67.8839 6.4288 72.8992 11.6684 72.8451 18.9543C72.7862 26.4726 67.8888 31.4747 60.5795 31.4747ZM67.8544 19.212C67.712 18.0094 67.6726 17.1151 67.4958 16.2461C66.8425 12.9669 64.7155 10.9661 61.4686 10.5012C58.4722 10.0768 55.6035 11.5117 54.3706 14.225C53.6558 15.7018 53.292 17.332 53.309 18.9816C53.3261 20.6312 53.7236 22.2531 54.4688 23.7139C55.7951 26.3715 58.0891 27.5741 60.9676 27.4629C64.0868 27.3416 66.1892 25.6844 67.1863 22.6781C67.4924 21.5414 67.7157 20.3828 67.8544 19.212Z" fill="white"/>
<path d="M91.0392 31.1259H86.6478V16.7613H80.0115V31.0905H75.4727V29.8173C75.4727 23.7541 75.4727 17.691 75.4727 11.6278C75.4727 6.0699 79.088 4.74611 83.3321 5.41811C83.5141 5.49693 83.6748 5.6199 83.8006 5.77652C83.9263 5.93314 84.0133 6.11875 84.0542 6.31748C84.1178 7.25246 84.1293 8.19041 84.0886 9.12674C82.7819 8.9499 81.5539 8.34864 80.5813 9.37432C79.6087 10.4 80.1146 11.8602 79.9378 13.1891H86.4562C86.5201 12.219 86.5741 11.2691 86.6527 10.3242C86.703 9.00452 87.2379 7.75352 88.1494 6.82339C89.061 5.89327 90.2815 5.35318 91.5648 5.31201C92.4984 5.26317 93.4343 5.28512 94.3648 5.37769C94.8854 5.41306 95.2489 5.65558 95.1949 6.33769C95.131 7.2219 95.1949 8.11116 95.1949 9.07116C93.9177 9.07116 92.4343 8.26274 91.6582 9.53095C91.0687 10.5011 91.0884 11.8602 90.7936 13.2295H94.9444V16.6703H91.054L91.0392 31.1259Z" fill="white"/>
<path d="M96.9408 23.3761H101.391C101.449 23.5057 101.498 23.639 101.539 23.7753C102.413 27.2869 105.778 28.8279 108.98 27.1959C109.587 26.9185 110.093 26.4512 110.427 25.8606C110.76 25.27 110.904 24.5862 110.837 23.9067C110.759 22.4414 109.825 21.7492 108.622 21.4208C107.188 21.0368 105.709 20.8043 104.255 20.486C103.577 20.3562 102.906 20.1875 102.246 19.9808C99.1169 18.9096 97.5941 17.0048 97.5008 14.0894C97.3976 10.9062 98.8909 8.48098 101.922 7.30371C104.771 6.15182 107.947 6.199 110.764 7.43508C113.441 8.57698 114.625 10.8305 114.895 13.7963H110.562C110.301 13.0664 109.972 12.3641 109.58 11.6995C108.278 9.89571 104.255 9.81487 102.791 11.5075C102.505 11.8299 102.302 12.2206 102.199 12.6442C102.097 13.0678 102.098 13.511 102.204 13.9338C102.31 14.3565 102.516 14.7455 102.805 15.0655C103.094 15.3856 103.455 15.6266 103.857 15.7669C105.493 16.3075 107.232 16.5197 108.922 16.8987C109.629 17.0553 110.331 17.2523 111.034 17.4544C116.673 19.1117 116.486 25.8469 113.721 28.7824C110.282 32.4507 102.285 32.5062 98.8615 28.8128C98.2005 28.0872 97.6896 27.2314 97.3594 26.2969C97.0293 25.3625 96.8869 24.3688 96.9408 23.3761Z" fill="white"/>
<path d="M122.528 23.2332C122.769 27.5987 125.923 28.7052 128.973 27.72C129.656 27.5027 130.137 26.6185 130.712 26.0425C130.928 25.8252 131.139 25.4311 131.37 25.416C132.608 25.3553 133.851 25.3907 135.187 25.3907C135.117 26.2802 134.861 27.1438 134.438 27.9224C134.014 28.7011 133.432 29.3765 132.731 29.9027C129.882 32.0955 123.275 32.3785 120.077 28.6648C117.749 25.9616 117.189 21.0303 118.962 17.4884C120.568 14.2901 124.12 12.5014 127.804 12.8854C133.183 13.4513 135.752 17.6804 135.172 23.2332H122.528ZM122.72 20.0854H130.663C130.633 17.7865 129.332 16.397 127.136 16.2606C124.793 16.1191 123.029 17.5995 122.72 20.0854Z" fill="white"/>
<path d="M155.151 19.7984H150.956C150.917 19.7478 150.858 19.7074 150.838 19.6468C150.092 17.3024 149.124 16.5344 146.968 16.5748C144.909 16.6102 143.426 17.7925 142.812 19.9449C142.339 21.5622 142.366 23.2908 142.891 24.8914C143.534 26.9125 145.052 27.9836 147.159 27.9533C149.267 27.923 150.411 26.9428 151.059 24.7954C151.133 24.5529 151.408 24.2144 151.605 24.2043C152.774 24.1487 153.943 24.2043 155.195 24.2043C155.141 26.6346 154.272 28.5394 152.459 29.8177C149.222 32.0712 145.715 32.1318 142.277 30.3685C138.74 28.5344 137.669 25.1794 137.954 21.3546C138.239 17.5297 140.061 14.8215 143.578 13.4674C146.023 12.5187 148.732 12.6004 151.118 13.6948C153.653 14.776 154.857 16.8982 155.151 19.7984Z" fill="white"/>
<path d="M17.9212 5.30664H20.5541C20.6278 18.398 19.8959 31.4793 22.8235 44.5605H16.0742C16.6981 37.9567 17.5479 31.4641 17.8573 24.9462C18.1668 18.4283 17.9212 11.9003 17.9212 5.30664Z" fill="white"/>
<path d="M105.047 40.039C104.838 39.8689 104.615 39.7184 104.379 39.5894C103.93 39.3119 103.427 39.1394 102.906 39.0841C102.542 39.1144 102.213 39.6348 101.869 39.9329C102.144 40.2563 102.36 40.6858 102.709 40.8778C103.2 41.1557 103.893 41.1506 104.34 41.4891C104.787 41.8277 105.322 42.4491 105.322 42.9291C105.285 43.2489 105.18 43.5564 105.016 43.8304C104.851 44.1044 104.631 44.3382 104.369 44.5157C103.014 45.3595 101.393 44.6571 100.887 42.8988C101.324 43.1161 101.589 43.2576 101.869 43.3788C102.36 43.6112 102.896 44.0357 103.382 43.9952C103.868 43.9548 104.193 43.394 104.595 43.0605C104.312 42.6811 103.982 42.3414 103.613 42.05C103.122 41.7569 102.493 41.6912 101.967 41.4285C101.639 41.2947 101.373 41.0375 101.222 40.709C101.072 40.3806 101.048 40.0056 101.157 39.6601C101.383 38.7557 102.252 38.2706 103.485 38.3312C104.468 38.3818 105.106 38.8365 105.293 39.8016L105.047 40.039Z" fill="white"/>
<path d="M66.6839 42.4952V44.5162L66.399 44.7234C66.2222 44.5011 65.9078 44.2788 65.9078 44.0514C65.8636 42.2021 65.8833 40.3478 65.8833 38.2813C66.8491 38.2797 67.814 38.3438 68.7716 38.4733C69.754 38.6602 70.1372 39.4838 70.0537 40.6055C70.0598 41.0403 69.9039 41.4611 69.618 41.7814C69.3321 42.1018 68.9379 42.2975 68.5162 42.3284C67.9218 42.4194 67.3373 42.4244 66.6839 42.4952ZM66.7478 39.1908V41.6362C68.6242 41.7878 69.2039 41.4998 69.2333 40.4388C69.2628 39.3777 68.7274 39.0341 66.7478 39.1655V39.1908Z" fill="white"/>
<path d="M78.9491 38.4528V40.297C79.2519 40.1497 79.5618 40.0181 79.8775 39.9029C80.0838 39.8254 80.3044 39.7963 80.523 39.8177C80.7417 39.8392 80.9529 39.9107 81.1413 40.0269C81.3296 40.1431 81.4903 40.3012 81.6116 40.4896C81.7329 40.6779 81.8118 40.8918 81.8424 41.1155C81.9357 42.2726 81.8424 43.4448 81.8424 44.6119L81.5624 44.7736C81.4101 44.5362 81.1448 44.3088 81.1252 44.0612C81.0663 43.278 81.1252 42.4898 81.0957 41.7067C81.0957 41.0448 80.801 40.6153 80.1133 40.6204C79.9654 40.6017 79.8153 40.6166 79.6736 40.664C79.5318 40.7113 79.4019 40.79 79.2928 40.8945C79.1838 40.9989 79.0983 41.1267 79.0423 41.2687C78.9863 41.4108 78.9612 41.5637 78.9688 41.7168C78.9295 42.6717 78.9688 43.6317 78.9688 44.5917L78.6691 44.7686C78.5021 44.5513 78.1779 44.3391 78.1779 44.1218C78.1386 42.3736 78.1386 40.6254 78.1779 38.8772C78.1779 38.6599 78.4726 38.4477 78.6298 38.2305L78.9491 38.4528Z" fill="white"/>
<path d="M73.5073 41.6869C73.3452 40.5855 72.6772 40.2873 71.8323 40.8179C71.542 40.983 71.2159 41.0699 70.8842 41.0705C71.0396 40.6079 71.3661 40.227 71.7928 40.0104C72.2194 39.7938 72.712 39.7589 73.1635 39.9135C74.1459 40.1762 74.3571 40.8785 74.3375 41.7829C74.3375 42.6014 74.3375 43.42 74.3375 44.2436C74.3299 44.3372 74.3151 44.4302 74.2933 44.5215C73.5564 44.6023 72.8196 44.7185 72.1221 44.7488C71.9414 44.7761 71.7571 44.7635 71.5815 44.7119C71.4059 44.6603 71.2429 44.5708 71.1036 44.4494C70.9642 44.328 70.8515 44.1775 70.773 44.0078C70.6945 43.8382 70.6521 43.6533 70.6484 43.4655C70.5502 42.561 71.0807 42.172 71.8274 42.0002C72.3824 41.8688 72.9571 41.788 73.5073 41.6869ZM73.5073 42.4297C72.9775 42.4944 72.4535 42.6025 71.9403 42.753C71.8147 42.8175 71.7068 42.9132 71.6261 43.0314C71.5455 43.1496 71.4948 43.2867 71.4786 43.4301C71.5223 43.57 71.5969 43.6976 71.6966 43.8028C71.7964 43.908 71.9184 43.9879 72.0533 44.0364C72.8835 44.3042 73.5073 43.6473 73.5073 42.4297Z" fill="white"/>
<path d="M54.0039 44.5872V38.418C54.5639 38.4483 54.5639 38.4483 54.8242 40.247C55.065 40.1211 55.3126 40.0098 55.566 39.9135C55.7936 39.8226 56.0391 39.7888 56.282 39.8148C56.5249 39.8409 56.7583 39.9261 56.9628 40.0634C57.1673 40.2006 57.3371 40.3861 57.4581 40.6043C57.5791 40.8225 57.6478 41.0672 57.6585 41.3182C57.7126 42.242 57.7126 43.1683 57.6585 44.0921C57.6585 44.2891 57.4031 44.4761 57.2656 44.6681C57.1477 44.4609 56.9315 44.2588 56.9168 44.0466C56.8775 43.2634 56.9168 42.4803 56.9168 41.6971C56.9168 41.0352 56.6073 40.6108 55.9098 40.6108C55.7694 40.5896 55.6262 40.6 55.49 40.6412C55.3538 40.6824 55.228 40.7535 55.1211 40.8495C55.0142 40.9456 54.9288 41.0643 54.8707 41.1975C54.8127 41.3308 54.7834 41.4753 54.7849 41.6213C54.7309 42.3994 54.7849 43.1877 54.7211 43.9658C54.6531 44.2537 54.5403 44.5284 54.3871 44.7792L54.0039 44.5872Z" fill="white"/>
<path d="M94.5008 41.1764C94.9625 39.994 95.7829 39.6606 96.7555 39.9132C97.7281 40.1658 97.954 40.853 97.9147 41.7726C97.8754 42.6921 97.9147 43.5511 97.8852 44.4404C97.8852 44.501 97.8361 44.5616 97.8852 44.4909C97.2418 44.5869 96.6916 44.6728 96.1365 44.7486C95.1197 44.885 94.3681 44.4201 94.2257 43.5713C94.0832 42.7225 94.6187 42.1313 95.7288 41.9444L97.2712 41.6766C97.0453 41.2622 96.9323 40.7721 96.7112 40.7166C96.2858 40.6706 95.8557 40.7171 95.4488 40.853C95.1259 40.938 94.8091 41.0461 94.5008 41.1764ZM97.0846 42.4547C96.5863 42.4906 96.0927 42.5769 95.6109 42.7124C95.3506 42.8134 95.1836 43.162 94.9773 43.4046C95.2425 43.6269 95.4685 43.9856 95.7878 44.0513C96.5934 44.213 97.0846 43.6319 97.0846 42.4547Z" fill="white"/>
<path d="M110.243 42.5349H107.124C107.021 43.5455 107.522 44.0507 108.264 44.0507C108.868 44.0507 109.467 43.6465 110.165 43.3838C109.835 44.6015 109.005 45.0107 107.767 44.7227C106.638 44.4549 106.024 43.2069 106.294 41.6912C106.37 41.1373 106.653 40.6359 107.084 40.2941C107.514 39.9523 108.057 39.7973 108.598 39.8621C109.791 40.0389 110.386 40.9787 110.243 42.5349ZM107.055 41.7771H109.447L109.614 41.4133C109.25 41.0858 108.832 40.826 108.381 40.6453C107.679 40.4735 107.257 40.9787 107.055 41.7771Z" fill="white"/>
<path d="M154.989 43.3992C154.915 43.6723 154.783 43.9251 154.602 44.1394C154.422 44.3537 154.197 44.5242 153.945 44.6387C153.693 44.7532 153.419 44.8088 153.144 44.8015C152.868 44.7943 152.598 44.7243 152.351 44.5967C151.325 44.0914 150.853 42.6918 151.276 41.3428C151.415 40.8397 151.734 40.4091 152.168 40.1366C152.602 39.8642 153.12 39.7699 153.619 39.8725C154.798 40.1403 155.284 40.979 155.092 42.5554H151.973C151.973 43.5104 152.425 44.0712 153.196 44.0308C153.81 44.0106 154.395 43.6266 154.989 43.3992ZM151.983 41.7874H154.351L154.523 41.4388C154.172 41.1009 153.764 40.832 153.319 40.6455C152.626 40.4737 152.155 40.9133 151.983 41.7874Z" fill="white"/>
<path d="M127.692 42.5601H124.524C124.49 43.515 124.971 44.0759 125.732 44.0304C126.337 44.0304 126.926 43.6212 127.628 43.3584C127.255 44.5963 126.474 44.9854 125.231 44.7075C124.067 44.4447 123.463 43.1917 123.758 41.6153C123.836 41.0817 124.11 40.5994 124.525 40.2683C124.939 39.9373 125.461 39.7827 125.983 39.8367C127.172 39.9934 127.746 40.8523 127.692 42.5601ZM126.926 41.8224C126.793 40.9028 126.356 40.5492 125.639 40.6148C125.492 40.6184 125.346 40.653 125.213 40.7167C125.079 40.7803 124.959 40.8716 124.861 40.9849C124.763 41.0981 124.688 41.2309 124.642 41.375C124.596 41.5191 124.579 41.6714 124.593 41.8224H126.926Z" fill="white"/>
<path d="M62.6348 42.5453H59.3387C59.6777 43.1112 59.8299 43.667 60.1443 43.8084C60.6155 43.9401 61.1124 43.9401 61.5836 43.8084C61.9996 43.6672 62.3984 43.4773 62.7723 43.2425C62.1485 44.6573 61.0727 45.0766 59.9773 44.627C58.8819 44.1773 58.4251 42.7878 58.7935 41.4236C58.9292 40.9059 59.2517 40.4609 59.6952 40.1793C60.1388 39.8977 60.6701 39.8006 61.1808 39.9078C62.3646 40.1554 62.846 40.979 62.6348 42.5453ZM59.5352 41.7975H61.9225C61.8587 40.9891 61.5001 40.6253 60.8075 40.6101C60.1148 40.595 59.7071 41.0042 59.5352 41.7975Z" fill="white"/>
<path d="M132.227 41.8976C131.736 42.8424 132.522 44.0348 131.672 44.722L131.328 44.6361V38.3203C132.374 38.3203 133.435 38.3203 134.496 38.3203C134.654 38.3203 134.801 38.5831 134.953 38.7245C134.786 38.8508 134.619 39.0681 134.462 39.0782C133.711 39.1186 132.954 39.0782 132.139 39.0782V41.0993C132.841 41.0993 133.524 41.0993 134.207 41.0993C134.383 41.0993 134.541 41.3418 134.698 41.4681C134.536 41.6045 134.379 41.847 134.207 41.8572C133.548 41.9228 132.89 41.8976 132.227 41.8976Z" fill="white"/>
<path d="M119.227 39.7969C119.389 40.0141 119.684 40.2213 119.694 40.4436C119.738 41.6562 119.694 42.8689 119.694 44.0815C119.694 44.6878 119.453 44.8141 118.923 44.5362C118.718 44.4651 118.495 44.4778 118.299 44.5716C117.046 45.0769 116.059 44.4453 116.034 43.0558C116.01 42.0453 116.034 40.9994 116.034 39.9737L116.359 39.8171C116.501 40.0596 116.747 40.292 116.766 40.5396C116.82 41.247 116.766 41.9645 116.766 42.6769C116.766 43.3893 116.914 43.9198 117.714 43.9249C118.515 43.9299 118.834 43.4196 118.859 42.687C118.893 41.7725 118.859 40.8529 118.859 39.9383L119.227 39.7969Z" fill="white"/>
<path d="M91.6803 42.3677C91.6803 43.9138 90.8697 44.793 89.514 44.7576C88.2565 44.7273 87.4951 43.8027 87.5 42.3121C87.5049 40.8216 88.3891 39.7858 89.627 39.8212C90.8648 39.8566 91.6803 40.8469 91.6803 42.3677ZM90.914 42.3172C90.914 41.2612 90.4227 40.6195 89.6172 40.6094C88.8116 40.5993 88.2958 41.2309 88.286 42.2818C88.2761 43.3328 88.8165 44.1008 89.627 44.0755C90.4375 44.0502 90.8943 43.3328 90.8894 42.3172H90.914Z" fill="white"/>
<path d="M139.372 40.0079V44.5149C138.645 44.5907 137.972 44.6968 137.294 44.7271C137.111 44.7591 136.924 44.7492 136.745 44.698C136.566 44.6469 136.401 44.5559 136.26 44.4314C136.119 44.307 136.007 44.1521 135.931 43.9779C135.855 43.8037 135.817 43.6144 135.821 43.4235C135.752 42.413 135.772 41.4328 135.796 40.4374C135.796 40.2555 136.017 40.0787 136.135 39.8968C136.253 40.0787 136.459 40.2555 136.469 40.4425C136.518 41.2206 136.469 42.0088 136.518 42.7869C136.562 43.4387 136.788 43.9945 137.584 43.9288C137.732 43.9275 137.879 43.8936 138.013 43.8292C138.148 43.7649 138.267 43.6716 138.363 43.5557C138.46 43.4398 138.531 43.304 138.572 43.1574C138.613 43.0108 138.623 42.8569 138.601 42.706C138.601 41.9936 138.567 41.2812 138.601 40.5738C138.684 40.2934 138.818 40.0313 138.994 39.8008L139.372 40.0079Z" fill="white"/>
<path d="M143.871 39.7969C144.014 40.0445 144.259 40.3021 144.279 40.5447C144.333 41.3228 144.215 42.1261 144.343 42.8891C144.402 43.268 144.868 43.8996 145.119 43.8541C145.353 43.8284 145.578 43.7452 145.775 43.6115C145.971 43.4779 146.134 43.2977 146.249 43.0861C146.372 42.2501 146.431 41.4054 146.425 40.5598C146.498 40.3207 146.611 40.0967 146.759 39.8979C146.877 40.1101 147.098 40.3223 147.108 40.5346C147.138 41.7472 147.108 42.9548 147.108 44.1674C147.108 44.7636 146.872 44.8192 146.421 44.5009C146.343 44.4664 146.259 44.4486 146.175 44.4486C146.09 44.4486 146.007 44.4664 145.929 44.5009C144.554 45.1426 143.576 44.5615 143.517 43.0154C143.478 42.0049 143.517 40.9943 143.517 39.9535L143.871 39.7969Z" fill="white"/>
<path d="M51.0286 39.1096V44.5614C50.2427 44.8747 50.2328 44.3997 50.2328 43.8995C50.2328 42.3383 50.2328 40.777 50.2328 39.1652L48.1992 39.0642C48.4448 38.7307 48.5824 38.3568 48.7396 38.3467C49.9872 38.3012 51.2349 38.3063 52.4826 38.3467C52.6349 38.3467 52.7822 38.6195 52.9296 38.7661C52.7921 38.8823 52.6594 39.0894 52.5072 39.1046C52.07 39.14 51.6181 39.1096 51.0286 39.1096Z" fill="white"/>
<path d="M114.981 41.5456C113.508 40.5907 111.833 39.7671 111.946 42.45C112.049 44.8298 113.581 44.1932 114.942 43.0109C114.765 44.3852 114.215 44.8197 113.066 44.7591C111.916 44.6985 111.16 43.8244 111.101 42.4349C111.042 41.0454 111.838 39.9389 113.036 39.8277C114.038 39.7368 114.77 40.3077 114.981 41.5456Z" fill="white"/>
<path d="M85.1051 38.7109C85.3261 38.8019 85.6699 38.8625 85.6847 38.9686C85.7534 39.4739 85.8124 39.9488 86.4903 39.9337C86.5443 39.9337 86.6868 40.3227 86.6573 40.3429C86.3882 40.5134 86.1094 40.6669 85.8222 40.8027C85.8222 42.0861 85.2082 43.5867 87.0208 44.5164C85.5471 44.8549 85.0265 44.5164 85.0117 43.2987C85.0117 41.9093 85.0117 40.5198 85.0117 39.1354C85.0322 38.9916 85.0635 38.8498 85.1051 38.7109Z" fill="white"/>
<path d="M148.364 40.074C148.912 39.9694 149.467 39.9035 150.024 39.877C150.172 39.9004 150.313 39.9541 150.439 40.0349C150.566 40.1156 150.675 40.2217 150.761 40.3468C149.219 40.8218 149.14 40.9178 149.14 42.5548C149.14 43.0601 149.17 43.621 149.14 44.1515C149.14 44.3334 148.914 44.4951 148.791 44.6567C148.659 44.5001 148.408 44.3485 148.403 44.1868C148.354 42.7873 148.364 41.3776 148.364 40.074Z" fill="white"/>
<path d="M141.784 39.7755L142.461 40.2353L141.508 40.882C141.617 42.0744 140.865 43.6155 142.82 44.5401C141.169 44.8231 140.786 44.5098 140.777 43.2163C140.777 42.0744 140.752 40.9376 140.777 39.7957C140.827 39.4501 140.915 39.1112 141.037 38.7852C141.292 39.058 141.489 39.3511 141.784 39.7755Z" fill="white"/>
<path d="M76.3425 39.7469L77.1579 40.2521L77.0302 40.525L76.1165 40.7119C76.1656 42.0963 75.5172 43.5919 77.32 44.4711C75.92 44.8702 75.4042 44.5266 75.3797 43.3797C75.3551 42.2328 75.3502 40.9544 75.3797 39.7469C75.4335 39.3967 75.5361 39.0564 75.6842 38.7363L76.3425 39.7469Z" fill="white"/>
<path d="M123.229 40.5707C122.247 40.5707 121.608 40.9395 121.652 42.0864C121.687 42.9302 121.652 43.774 121.652 44.6128L121.338 44.7845C121.176 44.5572 120.886 44.3399 120.876 44.1125C120.827 42.905 120.851 41.6974 120.876 40.4949C120.873 40.36 120.889 40.2255 120.925 40.0957C121.696 40.0957 122.468 40.0957 123.239 40.1311C123.234 40.1159 123.229 40.3685 123.229 40.5707Z" fill="white"/>
</g>
<defs>
<clipPath id="clip0_3869_14376">
<rect width="155" height="50" fill="white"/>
</clipPath>
</defs>
</svg>
