<svg width="196" height="42" viewBox="0 0 196 42" fill="none" xmlns="http://www.w3.org/2000/svg">
<g clip-path="url(#clip0_2689_10353)">
<path d="M37.5853 33.1946C35.5906 35.24 33.1782 36.8414 30.5087 37.8924C24.3285 40.2879 18.7301 38.9035 16.7172 38.2968C13.8 37.5215 11.1417 35.9975 9.01154 33.879C7.28794 32.0741 6.02617 29.8872 5.3317 27.5012C4.27183 24.0798 4.27183 20.4227 5.3317 17.0012L5.28452 17.9035C5.00829 21.1467 5.60513 24.4045 7.01436 27.3457C7.67484 28.5901 9.10589 30.8768 12.0466 32.9146C14.2295 34.514 16.7466 35.6096 19.4134 36.121C22.0802 36.6325 24.829 36.5467 27.4579 35.8701C30.6084 35.1695 33.5193 33.6672 35.9024 31.5117C38.2855 29.3563 40.0582 26.6226 41.045 23.5812C41.3595 22.3368 41.7841 20.6724 41.2809 18.7124C41.1236 18.0901 40.8091 16.9857 39.8656 15.9901C39.4073 15.5363 38.8824 15.1535 38.3087 14.8546C37.2695 14.2829 36.1517 13.8637 34.9906 13.6101C33.8583 13.299 32.7103 13.0812 31.5466 12.9257L30.8075 12.8635C32.2569 15.1808 32.9793 17.8712 32.8833 20.5946C32.8361 21.4968 32.789 22.4612 32.3329 23.6435C31.7562 25.0415 30.8311 26.2723 29.6438 27.2212C28.1906 28.4583 26.4685 29.3473 24.6115 29.819C23.668 30.0524 22.693 30.239 22.693 30.239C23.2119 30.239 23.7309 30.2235 24.2341 30.1612C24.7688 30.099 25.1462 30.0679 25.6494 29.959C26.3099 29.8346 26.939 29.6479 27.568 29.4301C28.3857 29.1501 30.5559 28.3412 32.1285 26.6924C33.0829 25.6636 33.8016 24.4432 34.2357 23.1146C34.2357 23.1146 35.5882 19.5057 34.1256 15.0879C35.4629 16.8016 36.2485 18.8734 36.3803 21.0343C36.5121 23.1952 35.9841 25.3454 34.8648 27.2057C33.8529 28.8834 32.4714 30.3137 30.8232 31.3901C28.3283 33.0088 25.3925 33.8338 22.4099 33.7546C19.5457 33.73 16.766 32.7916 14.4841 31.079C13.111 29.9783 11.9892 28.6025 11.1923 27.0421C10.3954 25.4817 9.9416 23.7721 9.86073 22.0257C9.82928 21.1235 9.73492 15.0724 14.9244 11.7124C19.249 8.92791 24.1398 10.1568 24.8789 10.359L23.4164 13.4701L23.8724 13.9057L25.8224 10.3279L25.2248 13.9057L25.8224 13.6101L26.6244 10.5924C27.0333 10.7324 29.2349 11.3701 31.0906 10.3435C32.097 9.70569 32.9305 8.83458 33.4809 7.80791L33.7482 7.29458L34.0627 6.73458C33.6662 6.60953 33.2677 6.49026 32.8676 6.3768L32.2071 6.22125L31.5309 6.01902C31.3825 5.93882 31.2357 5.85585 31.0906 5.77014C29.345 4.72791 29.2035 4.15236 27.9454 3.39014C26.3979 2.50524 24.6765 1.95888 22.8974 1.78791L22.1111 1.69458C21.4821 1.64791 20.2712 1.64791 18.6986 1.7568C18.4942 1.18125 18.0696 0.68347 17.5192 0.372359C16.965 0.0592114 16.3189 -0.0560412 15.689 0.0459091C15.0592 0.147859 14.4839 0.460819 14.0595 0.932359C13.6506 1.39903 13.4305 2.00569 13.4305 2.61236C9.77562 4.05309 6.59214 6.4611 4.22884 9.57256C1.86554 12.684 0.413604 16.3789 0.0321035 20.2524C-0.0465255 21.5435 -0.392493 28.2479 4.56114 34.2212C11.3547 42.419 22.7716 42.7457 28.0869 41.3768C29.8168 40.9257 31.4837 40.2568 33.0406 39.4012C35.2737 38.0822 37.2194 36.3373 38.7648 34.2679C40.3836 31.8562 41.5452 29.1732 42.193 26.3501C42.3188 25.8057 42.4131 25.2612 42.4603 24.7012C42.4603 24.7012 40.7777 29.9279 37.5853 33.1946ZM69.0684 32.4479C67.5092 32.478 65.9594 32.2031 64.5079 31.639C63.2093 31.1154 62.0478 30.3069 61.1111 29.2746C60.1434 28.1915 59.4054 26.9273 58.941 25.5568C58.4288 23.9683 58.1792 22.3084 58.2019 20.6412C58.2019 18.8212 58.4535 17.1724 58.941 15.7257C59.4442 14.279 60.1676 13.0346 61.1111 12.0079C62.0636 10.9793 63.2343 10.1719 64.5394 9.64347C65.8761 9.09902 67.3857 8.83458 69.0684 8.83458C70.7668 8.83458 72.2765 9.09902 73.6289 9.64347C74.9213 10.1619 76.0736 10.9715 76.9942 12.0079C77.9612 13.0921 78.6895 14.3635 79.1329 15.7412C79.6047 17.1724 79.8563 18.8212 79.8563 20.6412C79.8563 22.4768 79.6204 24.1101 79.1329 25.5568C78.6611 27.0035 77.9535 28.2479 77.0256 29.2746C76.1006 30.3129 74.9427 31.1227 73.6446 31.639C72.3079 32.1835 70.7825 32.4479 69.0684 32.4479ZM69.0369 28.419C71.0341 28.419 72.5123 27.7501 73.4873 26.3968C74.4623 25.059 74.9498 23.1301 74.9498 20.6412C74.9498 18.1524 74.4781 16.2546 73.4873 14.9168C72.5123 13.5479 71.0341 12.8635 69.0369 12.8635C67.0398 12.8635 65.5458 13.5479 64.5708 14.9168C63.5958 16.2546 63.1083 18.1679 63.1083 20.6412C63.1083 23.1301 63.5958 25.059 64.5708 26.3968C65.5458 27.7501 67.0398 28.419 69.0369 28.419ZM84.4482 18.8835H81.8377V15.4457H84.4482V11.059H88.9144V15.4457H92.7357V18.8679H88.9144V26.4746C88.9144 27.3301 89.0873 27.9212 89.449 28.2324C89.8107 28.5279 90.2825 28.6679 90.8643 28.6679C91.1474 28.6679 91.4462 28.6679 91.745 28.6368C92.0595 28.6057 92.374 28.5435 92.6728 28.4501L93.3019 31.7012C92.6885 31.8879 92.091 32.0124 91.4934 32.0746C90.9115 32.1679 90.3611 32.199 89.8422 32.199C88.018 32.199 86.6498 31.779 85.7535 30.9079C84.8885 30.0524 84.4482 28.6057 84.4482 26.5524V18.8835ZM96.5256 18.8835H93.9152V15.4457H96.5256V11.059H100.976V15.4457H104.797V18.8679H100.976V26.4746C100.976 27.3301 101.165 27.9212 101.526 28.2324C101.888 28.5279 102.344 28.6679 102.926 28.6679C103.225 28.6679 103.524 28.6679 103.807 28.6368C104.121 28.6057 104.436 28.5435 104.75 28.4501L105.379 31.7012C104.75 31.8879 104.153 32.0124 103.555 32.0746C102.989 32.1679 102.439 32.199 101.904 32.199C100.08 32.199 98.7115 31.779 97.8152 30.9079C96.9502 30.0524 96.5256 28.6057 96.5256 26.5524V18.8835ZM122.473 26.7546C122.292 28.3911 121.488 29.8982 120.224 30.9701C119.029 31.919 117.284 32.3857 114.988 32.3857C112.236 32.3857 110.16 31.639 108.76 30.1301C107.376 28.6057 106.685 26.4746 106.685 23.6901C106.685 22.3057 106.889 21.0768 107.282 20.019C107.61 18.9958 108.171 18.0602 108.92 17.2838C109.67 16.5074 110.588 15.9106 111.607 15.539C112.686 15.1313 113.833 14.9307 114.988 14.9479C117.535 14.9479 119.454 15.6635 120.728 17.1257C122.082 18.765 122.772 20.8444 122.662 22.959V24.7168H111.135C111.182 26.039 111.528 27.0812 112.157 27.8279C112.786 28.5746 113.761 28.9479 115.035 28.9479C116.796 28.9479 117.834 28.2012 118.149 26.739H122.473V26.7546ZM118.385 21.839C118.385 20.7035 118.07 19.8168 117.504 19.1946C116.953 18.5724 116.089 18.2612 114.893 18.2612C114.159 18.2092 113.427 18.3971 112.81 18.7961C112.194 19.1952 111.727 19.7832 111.481 20.4701C111.324 20.8746 111.229 21.3412 111.214 21.839H118.369H118.385ZM126.012 15.4457H130.336V17.7479C130.81 16.9823 131.47 16.3454 132.255 15.8946C133.04 15.4438 133.926 15.1933 134.834 15.1657C135.258 15.1657 135.62 15.1812 135.887 15.2279C136.155 15.2435 136.406 15.2746 136.611 15.3212L136.076 19.319C134.993 19.09 133.873 19.09 132.789 19.319C132.349 19.4279 131.94 19.6301 131.578 19.9412C131.201 20.2835 130.918 20.6568 130.729 21.0768C130.556 21.4968 130.462 21.9324 130.462 22.3679V31.8879H126.012V15.4457ZM143.074 24.5457C143.184 25.9457 143.624 26.9412 144.411 27.579C145.213 28.2012 146.392 28.5124 147.949 28.5124C148.688 28.5124 149.317 28.4501 149.836 28.2946C150.339 28.139 150.748 27.9212 151.063 27.6724C151.377 27.3924 151.613 27.0812 151.739 26.7235C151.896 26.3657 151.959 25.9768 151.959 25.5568C151.959 24.9657 151.739 24.4212 151.299 23.9235C150.843 23.3946 150.041 23.0212 148.845 22.7879L145.873 22.2435C144.71 22.0412 143.672 21.7768 142.791 21.4346C141.966 21.138 141.199 20.7011 140.526 20.1435C139.927 19.5884 139.459 18.9082 139.158 18.1524C138.462 16.3382 138.519 14.3255 139.316 12.5524C139.772 11.7279 140.369 11.0435 141.14 10.499C141.926 9.95458 142.854 9.55014 143.939 9.27014C145.104 8.96746 146.304 8.82097 147.509 8.83458C149.16 8.83458 150.544 9.02125 151.645 9.39458C152.745 9.76791 153.642 10.2812 154.318 10.9035C154.994 11.5257 155.497 12.2257 155.812 13.0501C156.158 13.8746 156.378 14.7146 156.488 15.6012L151.991 16.1768C151.755 14.9324 151.299 14.0301 150.622 13.4857C149.962 12.9412 148.955 12.6768 147.603 12.6768C146.785 12.6768 146.125 12.739 145.59 12.8946C145.087 13.019 144.662 13.2057 144.348 13.4235C144.033 13.6412 143.813 13.8901 143.687 14.1857C143.562 14.4812 143.483 14.7768 143.483 15.1035C143.483 15.9435 143.719 16.5657 144.191 16.9857C144.678 17.4057 145.496 17.7324 146.644 17.9657L149.757 18.5568C152.226 19.039 154.035 19.8324 155.183 20.9212C156.331 22.0101 156.897 23.5657 156.897 25.5879C156.897 26.5679 156.708 27.4857 156.331 28.3257C155.969 29.1501 155.403 29.8812 154.664 30.5035C153.941 31.1101 153.028 31.5924 151.928 31.919C150.827 32.2768 149.537 32.4479 148.043 32.4479C144.945 32.4479 142.571 31.8101 140.904 30.5035C139.268 29.1812 138.388 27.1901 138.262 24.5457H143.074ZM175.092 26.7546C174.91 28.3911 174.106 29.8982 172.843 30.9701C171.648 31.919 169.902 32.3857 167.606 32.3857C164.854 32.3857 162.778 31.639 161.379 30.1301C159.995 28.6057 159.303 26.4746 159.303 23.6901C159.303 22.3057 159.507 21.0768 159.901 20.019C160.23 18.9963 160.791 18.0613 161.54 17.285C162.289 16.5087 163.208 15.9116 164.225 15.539C165.304 15.1317 166.452 14.9311 167.606 14.9479C170.17 14.9479 172.072 15.6635 173.346 17.1257C174.705 18.7691 175.394 20.8547 175.28 22.9746V24.7324H163.753C163.801 26.0546 164.147 27.0968 164.776 27.8435C165.405 28.5901 166.38 28.9635 167.653 28.9635C169.399 28.9635 170.453 28.2168 170.767 26.7546H175.092ZM171.003 21.839C171.003 20.7035 170.689 19.8168 170.122 19.1946C169.572 18.5724 168.707 18.2612 167.512 18.2612C166.777 18.2066 166.044 18.3934 165.427 18.7928C164.81 19.1921 164.343 19.7818 164.099 20.4701C163.942 20.8746 163.848 21.3412 163.832 21.839H170.987H171.003ZM193.57 25.9301C193.488 27.7051 192.749 29.3884 191.494 30.659C190.299 31.8101 188.506 32.3857 186.116 32.3857C184.7 32.3857 183.505 32.1835 182.483 31.7635C181.51 31.3756 180.645 30.7641 179.958 29.9796C179.272 29.1952 178.784 28.2603 178.536 27.2524C177.864 24.9262 177.886 22.4576 178.599 20.1435C178.976 19.0546 179.526 18.1212 180.218 17.359C180.926 16.5812 181.791 15.9901 182.797 15.5701C183.82 15.1501 184.999 14.9479 186.304 14.9479C187.421 14.9479 188.412 15.0879 189.229 15.3835C189.995 15.5928 190.704 15.9699 191.303 16.4869C191.902 17.0039 192.376 17.6475 192.689 18.3701C193.019 19.0701 193.239 19.8324 193.334 20.6724L188.852 21.279C188.788 20.5528 188.533 19.8557 188.113 19.2568C187.735 18.7279 187.075 18.479 186.147 18.479C185.584 18.4539 185.026 18.5866 184.536 18.8619C184.047 19.1371 183.645 19.5436 183.379 20.0346C183.112 20.5324 182.939 21.0768 182.829 21.7146C182.598 23.0061 182.598 24.3276 182.829 25.619C182.939 26.2412 183.112 26.8012 183.379 27.2835C183.62 27.7529 183.977 28.1544 184.417 28.4501C184.932 28.7463 185.521 28.892 186.116 28.8701C186.996 28.8701 187.688 28.6057 188.176 28.1079C188.663 27.6101 188.962 26.879 189.041 25.9301H193.57Z" fill="white"/>
</g>
<defs>
<clipPath id="clip0_2689_10353">
<rect width="196" height="42" fill="white"/>
</clipPath>
</defs>
</svg>
