<svg width="1694" height="685" viewBox="0 0 1694 685" fill="none" xmlns="http://www.w3.org/2000/svg">
<g clip-path="url(#clip0_2689_10187)">
<rect x="140" y="-50" width="99.5714" height="99.5714" stroke="#1A1E2A" stroke-width="2"/>
<rect x="239.57" y="-50" width="99.5714" height="99.5714" stroke="#1A1E2A" stroke-width="2"/>
<rect x="339.145" y="-50" width="99.5714" height="99.5714" stroke="#1A1E2A" stroke-width="2"/>
<rect x="438.715" y="-50" width="99.5714" height="99.5714" stroke="#1A1E2A" stroke-width="2"/>
<rect x="538.285" y="-50" width="99.5714" height="99.5714" stroke="#1A1E2A" stroke-width="2"/>
<rect x="637.855" y="-50" width="99.5714" height="99.5714" stroke="#1A1E2A" stroke-width="2"/>
<rect x="737.43" y="-50" width="99.5714" height="99.5714" stroke="#1A1E2A" stroke-width="2"/>
<rect x="837" y="-50" width="99.5714" height="99.5714" stroke="#1A1E2A" stroke-width="2"/>
<rect x="936.57" y="-50" width="99.5714" height="99.5714" stroke="#1A1E2A" stroke-width="2"/>
<rect x="1036.14" y="-50" width="99.5714" height="99.5714" stroke="#1A1E2A" stroke-width="2"/>
<rect x="1135.71" y="-50" width="99.5714" height="99.5714" stroke="#1A1E2A" stroke-width="2"/>
<rect x="1235.29" y="-50" width="99.5714" height="99.5714" stroke="#1A1E2A" stroke-width="2"/>
<rect x="1334.86" y="-50" width="99.5714" height="99.5714" stroke="#1A1E2A" stroke-width="2"/>
<rect x="1434.43" y="-50" width="99.5714" height="99.5714" stroke="#1A1E2A" stroke-width="2"/>
<rect x="140" y="49.5713" width="99.5714" height="99.5714" stroke="#1A1E2A" stroke-width="2"/>
<rect x="239.57" y="49.5713" width="99.5714" height="99.5714" stroke="#1A1E2A" stroke-width="2"/>
<rect x="339.145" y="49.5713" width="99.5714" height="99.5714" stroke="#1A1E2A" stroke-width="2"/>
<rect x="438.715" y="49.5713" width="99.5714" height="99.5714" stroke="#1A1E2A" stroke-width="2"/>
<rect x="538.285" y="49.5713" width="99.5714" height="99.5714" stroke="#1A1E2A" stroke-width="2"/>
<rect x="637.855" y="49.5713" width="99.5714" height="99.5714" stroke="#1A1E2A" stroke-width="2"/>
<rect x="737.43" y="49.5713" width="99.5714" height="99.5714" stroke="#1A1E2A" stroke-width="2"/>
<rect x="837" y="49.5713" width="99.5714" height="99.5714" stroke="#1A1E2A" stroke-width="2"/>
<rect x="936.57" y="49.5713" width="99.5714" height="99.5714" stroke="#1A1E2A" stroke-width="2"/>
<rect x="1036.14" y="49.5713" width="99.5714" height="99.5714" stroke="#1A1E2A" stroke-width="2"/>
<rect x="1135.71" y="49.5713" width="99.5714" height="99.5714" fill="#181D28" stroke="#1A1E2A" stroke-width="2"/>
<rect x="1235.29" y="49.5713" width="99.5714" height="99.5714" stroke="#1A1E2A" stroke-width="2"/>
<rect x="1334.86" y="49.5713" width="99.5714" height="99.5714" stroke="#1A1E2A" stroke-width="2"/>
<rect x="1434.43" y="49.5713" width="99.5714" height="99.5714" stroke="#1A1E2A" stroke-width="2"/>
<rect x="140" y="149.143" width="99.5714" height="99.5714" stroke="#1A1E2A" stroke-width="2"/>
<rect x="239.57" y="149.143" width="99.5714" height="99.5714" stroke="#1A1E2A" stroke-width="2"/>
<rect x="339.145" y="149.143" width="99.5714" height="99.5714" fill="#181D28" stroke="#1A1E2A" stroke-width="2"/>
<rect x="438.715" y="149.143" width="99.5714" height="99.5714" stroke="#1A1E2A" stroke-width="2"/>
<rect x="538.285" y="149.143" width="99.5714" height="99.5714" stroke="#1A1E2A" stroke-width="2"/>
<rect x="637.855" y="149.143" width="99.5714" height="99.5714" stroke="#1A1E2A" stroke-width="2"/>
<rect x="737.43" y="149.143" width="99.5714" height="99.5714" stroke="#1A1E2A" stroke-width="2"/>
<rect x="837" y="149.143" width="99.5714" height="99.5714" stroke="#1A1E2A" stroke-width="2"/>
<rect x="936.57" y="149.143" width="99.5714" height="99.5714" stroke="#1A1E2A" stroke-width="2"/>
<rect x="1036.14" y="149.143" width="99.5714" height="99.5714" stroke="#1A1E2A" stroke-width="2"/>
<rect x="1135.71" y="149.143" width="99.5714" height="99.5714" stroke="#1A1E2A" stroke-width="2"/>
<rect x="1235.29" y="149.143" width="99.5714" height="99.5714" stroke="#1A1E2A" stroke-width="2"/>
<rect x="1334.86" y="149.143" width="99.5714" height="99.5714" stroke="#1A1E2A" stroke-width="2"/>
<rect x="1434.43" y="149.143" width="99.5714" height="99.5714" stroke="#1A1E2A" stroke-width="2"/>
<rect x="140" y="248.714" width="99.5714" height="99.5714" stroke="#1A1E2A" stroke-width="2"/>
<rect x="239.57" y="248.714" width="99.5714" height="99.5714" stroke="#1A1E2A" stroke-width="2"/>
<rect x="339.145" y="248.714" width="99.5714" height="99.5714" stroke="#1A1E2A" stroke-width="2"/>
<rect x="438.715" y="248.714" width="99.5714" height="99.5714" stroke="#1A1E2A" stroke-width="2"/>
<rect x="538.285" y="248.714" width="99.5714" height="99.5714" stroke="#1A1E2A" stroke-width="2"/>
<rect x="637.855" y="248.714" width="99.5714" height="99.5714" stroke="#1A1E2A" stroke-width="2"/>
<rect x="737.43" y="248.714" width="99.5714" height="99.5714" stroke="#1A1E2A" stroke-width="2"/>
<rect x="837" y="248.714" width="99.5714" height="99.5714" stroke="#1A1E2A" stroke-width="2"/>
<rect x="936.57" y="248.714" width="99.5714" height="99.5714" stroke="#1A1E2A" stroke-width="2"/>
<rect x="1036.14" y="248.714" width="99.5714" height="99.5714" stroke="#1A1E2A" stroke-width="2"/>
<rect x="1135.71" y="248.714" width="99.5714" height="99.5714" stroke="#1A1E2A" stroke-width="2"/>
<rect x="1235.29" y="248.714" width="99.5714" height="99.5714" stroke="#1A1E2A" stroke-width="2"/>
<rect x="1235.29" y="248.714" width="99.5714" height="99.5714" stroke="black" stroke-opacity="0.2" stroke-width="2"/>
<rect x="1334.86" y="248.714" width="99.5714" height="99.5714" stroke="#1A1E2A" stroke-width="2"/>
<rect x="1434.43" y="248.714" width="99.5714" height="99.5714" stroke="#1A1E2A" stroke-width="2"/>
<rect x="140" y="348.286" width="99.5714" height="99.5714" stroke="#1A1E2A" stroke-width="2"/>
<rect x="239.57" y="348.286" width="99.5714" height="99.5714" stroke="#1A1E2A" stroke-width="2"/>
<rect x="339.145" y="348.286" width="99.5714" height="99.5714" stroke="#1A1E2A" stroke-width="2"/>
<rect x="438.715" y="348.286" width="99.5714" height="99.5714" fill="#181D28" stroke="#1A1E2A" stroke-width="2"/>
<rect x="538.285" y="348.286" width="99.5714" height="99.5714" stroke="#1A1E2A" stroke-width="2"/>
<rect x="637.855" y="348.286" width="99.5714" height="99.5714" stroke="#1A1E2A" stroke-width="2"/>
<rect x="737.43" y="348.286" width="99.5714" height="99.5714" stroke="#1A1E2A" stroke-width="2"/>
<rect x="837" y="348.286" width="99.5714" height="99.5714" stroke="#1A1E2A" stroke-width="2"/>
<rect x="936.57" y="348.286" width="99.5714" height="99.5714" stroke="#1A1E2A" stroke-width="2"/>
<rect x="1036.14" y="348.286" width="99.5714" height="99.5714" stroke="#1A1E2A" stroke-width="2"/>
<rect x="1135.71" y="348.286" width="99.5714" height="99.5714" stroke="#1A1E2A" stroke-width="2"/>
<rect x="1235.29" y="348.286" width="99.5714" height="99.5714" stroke="#1A1E2A" stroke-width="2"/>
<rect x="1334.86" y="348.286" width="99.5714" height="99.5714" stroke="#1A1E2A" stroke-width="2"/>
<rect x="1434.43" y="348.286" width="99.5714" height="99.5714" stroke="#1A1E2A" stroke-width="2"/>
<rect x="140" y="447.857" width="99.5714" height="99.5714" stroke="#1A1E2A" stroke-width="2"/>
<rect x="239.57" y="447.857" width="99.5714" height="99.5714" stroke="#1A1E2A" stroke-width="2"/>
<rect x="339.145" y="447.857" width="99.5714" height="99.5714" stroke="#1A1E2A" stroke-width="2"/>
<rect x="438.715" y="447.857" width="99.5714" height="99.5714" stroke="#1A1E2A" stroke-width="2"/>
<rect x="538.285" y="447.857" width="99.5714" height="99.5714" stroke="#1A1E2A" stroke-width="2"/>
<rect x="637.855" y="447.857" width="99.5714" height="99.5714" stroke="#1A1E2A" stroke-width="2"/>
<rect x="737.43" y="447.857" width="99.5714" height="99.5714" stroke="#1A1E2A" stroke-width="2"/>
<rect x="837" y="447.857" width="99.5714" height="99.5714" stroke="#1A1E2A" stroke-width="2"/>
<rect x="936.57" y="447.857" width="99.5714" height="99.5714" fill="#181D28" stroke="#1A1E2A" stroke-width="2"/>
<rect x="1036.14" y="447.857" width="99.5714" height="99.5714" stroke="#1A1E2A" stroke-width="2"/>
<rect x="1135.71" y="447.857" width="99.5714" height="99.5714" stroke="#1A1E2A" stroke-width="2"/>
<rect x="1235.29" y="447.857" width="99.5714" height="99.5714" stroke="#1A1E2A" stroke-width="2"/>
<rect x="1334.86" y="447.857" width="99.5714" height="99.5714" stroke="#1A1E2A" stroke-width="2"/>
<rect x="1434.43" y="447.857" width="99.5714" height="99.5714" stroke="#1A1E2A" stroke-width="2"/>
<rect x="140" y="547.429" width="99.5714" height="99.5714" stroke="#1A1E2A" stroke-width="2"/>
<rect x="239.57" y="547.429" width="99.5714" height="99.5714" stroke="#1A1E2A" stroke-width="2"/>
<rect x="339.145" y="547.429" width="99.5714" height="99.5714" stroke="#1A1E2A" stroke-width="2"/>
<rect x="438.715" y="547.429" width="99.5714" height="99.5714" stroke="#1A1E2A" stroke-width="2"/>
<rect x="538.285" y="547.429" width="99.5714" height="99.5714" stroke="#1A1E2A" stroke-width="2"/>
<rect x="637.855" y="547.429" width="99.5714" height="99.5714" stroke="#1A1E2A" stroke-width="2"/>
<rect x="737.43" y="547.429" width="99.5714" height="99.5714" stroke="#1A1E2A" stroke-width="2"/>
<rect x="837" y="547.429" width="99.5714" height="99.5714" stroke="#1A1E2A" stroke-width="2"/>
<rect x="936.57" y="547.429" width="99.5714" height="99.5714" fill="#181D28" stroke="#1A1E2A" stroke-width="2"/>
<rect x="1036.14" y="547.429" width="99.5714" height="99.5714" stroke="#1A1E2A" stroke-width="2"/>
<rect x="1135.71" y="547.429" width="99.5714" height="99.5714" stroke="#1A1E2A" stroke-width="2"/>
<rect x="1235.29" y="547.429" width="99.5714" height="99.5714" stroke="#1A1E2A" stroke-width="2"/>
<rect x="1334.86" y="547.429" width="99.5714" height="99.5714" stroke="#1A1E2A" stroke-width="2"/>
<rect x="1434.43" y="547.429" width="99.5714" height="99.5714" stroke="#1A1E2A" stroke-width="2"/>
<rect x="232" y="-1" width="1210" height="606" fill="url(#paint0_radial_2689_10187)"/>
<rect width="102" height="584" transform="matrix(-1 0 0 1 232 -1)" fill="#0D111D"/>
<rect width="102" height="584" transform="matrix(-1 0 0 1 1543 -1)" fill="#0D111D"/>
<rect width="102" height="1694" transform="matrix(-4.37114e-08 1 1 4.37114e-08 0 583)" fill="#0D111D"/>
</g>
<defs>
<radialGradient id="paint0_radial_2689_10187" cx="0" cy="0" r="1" gradientUnits="userSpaceOnUse" gradientTransform="translate(837 302) rotate(90) scale(303 605)">
<stop stop-color="#D9D9D9" stop-opacity="0"/>
<stop offset="0.0001" stop-color="#0D111D" stop-opacity="0"/>
<stop offset="1" stop-color="#0D111D"/>
</radialGradient>
<clipPath id="clip0_2689_10187">
<rect width="1694" height="686" fill="white" transform="translate(0 -1)"/>
</clipPath>
</defs>
</svg>
