<svg width="224" height="54" viewBox="0 0 224 54" fill="none" xmlns="http://www.w3.org/2000/svg">
<path d="M55.7578 16.3727H61.2766L63.8749 30.538L67.7028 16.3727H72.5555L77.0993 30.7858L79.7574 16.3727H85.0015L80.515 37.5684H74.46L70.4343 24.3442L66.3153 37.5684H59.9632L55.7578 16.3727Z" fill="white"/>
<path d="M215.877 37.5684H210.358L207.765 23.3519L203.932 37.5684H199.078L194.553 23.1586L191.878 37.5684H186.633L191.12 16.3727H197.174L201.199 29.6074L205.321 16.3727H211.671L215.877 37.5684Z" fill="white"/>
<path d="M96.5608 33.7399C99.9924 33.7399 101.357 30.4601 101.357 26.9694C101.357 23.2921 99.9924 20.1965 96.5608 20.1965C93.1298 20.1965 91.7647 23.2921 91.7647 26.9694C91.7647 30.4601 93.1298 33.7399 96.5608 33.7399ZM96.5608 16.0052C103.544 16.0052 107.187 20.1678 107.187 26.9694C107.187 33.7105 103.484 37.9297 96.5608 37.9297C89.6407 37.9297 85.9375 33.7105 85.9375 26.9694C85.9375 20.1678 89.5798 16.0052 96.5608 16.0052Z" fill="white"/>
<path d="M110.344 16.3703H115.991V33.3761H124.734V37.5645H110.344V16.3703Z" fill="white"/>
<path d="M127.07 16.3703H141.242V20.3795H132.716V25.027H140.879V29.0329H132.716V37.5645H127.07V16.3703Z" fill="white"/>
<path d="M149.841 25.1792H151.331C153.151 25.1792 155.459 25.1175 155.459 22.7178C155.459 20.7453 153.485 20.3795 151.331 20.3795H149.841V25.1792ZM144.195 16.3703H154.274C158.039 16.3703 161.105 18.0696 161.105 21.7167C161.105 24.5415 159.769 26.423 157.037 27.0604V27.1221C158.856 27.6083 158.981 29.2181 160.043 31.799L162.105 37.5645H156.217L155.004 33.741C153.848 30.0979 153.122 29.1857 151.027 29.1857H149.841V37.5645H144.195V16.3703Z" fill="white"/>
<path d="M174.12 20.7453H174.061L171.329 29.0329H176.639L174.12 20.7453ZM170.657 16.3703H177.581L185.747 37.5645H179.553L177.975 33.043H170.023L168.352 37.5645H162.613L170.657 16.3703Z" fill="white"/>
<path d="M38.7926 34.8155L34.6329 33.5137L39.6063 32.0652L44.2628 33.6387L38.7926 34.8155ZM32.1491 40.613L32.2936 34.7589L37.8605 36.5009L38.5569 43.3936L32.1491 40.613ZM15.1437 36.4991L20.7125 34.7589L20.8548 40.6118L14.4458 43.3909L15.1437 36.4991ZM8.74545 33.6353L13.4004 32.0652L18.3707 33.5128L14.211 34.8128L8.74545 33.6353ZM11.9219 27.7994L15.8474 26.3605L12.7977 30.276L8.32684 31.7841L11.9219 27.7994ZM6.99843 20.7346L13.8444 19.2621L17.1354 23.8776L11.6466 25.8895L6.99843 20.7346ZM30.0315 12.7004L26.5041 17.1531L22.9779 12.6989L26.5032 6.73561L30.0315 12.7004ZM46.0098 20.7391L41.361 25.8925L35.8716 23.8782L39.165 19.2646L46.0098 20.7391ZM28.0472 27.4379L34.0363 25.4442L38.0219 30.561L31.7418 32.3904L28.0472 27.4379ZM22.6677 36.6356L25.549 40.7885V45.649L22.7724 40.9552L22.6677 36.6356ZM24.9595 27.4379L21.2649 32.3904L14.9845 30.561L18.97 25.4442L24.9595 27.4379ZM15.1845 17.8683L14.6314 12.4012L17.4462 16.156L17.5877 21.2392L15.1845 17.8683ZM27.4574 19.3484L33.6217 17.1828L33.4417 23.6522L27.4574 25.6441V19.3484ZM19.5647 23.6522L19.3847 17.1828L25.549 19.3484V25.6441L19.5647 23.6522ZM26.5032 38.8293L22.8064 33.5007L26.5032 28.5452L30.1999 33.5007L26.5032 38.8293ZM37.825 17.8699L35.4186 21.2413L35.5598 16.1569L38.3789 12.4012L37.825 17.8699ZM31.7847 13.5451L36.7642 11.3853L34.0201 15.0417L29.2803 16.7069L31.7847 13.5451ZM23.7272 16.7072L18.986 15.0417L16.2425 11.382L21.2226 13.5433L23.7272 16.7072ZM30.2312 40.9567L27.4574 45.6481V40.7885L30.3377 36.6371L30.2312 40.9567ZM44.6768 31.7859L40.2089 30.2763L37.1611 26.3633L41.0844 27.803L44.6768 31.7859ZM42.9181 27.0007L49.6089 19.5846L39.7842 17.4681L40.784 7.58271L31.5774 11.5762L26.5032 2.99778L21.4321 11.5753L12.2263 7.57969L13.2252 17.4654L3.39966 19.5792L10.0886 26.9974L3.39844 34.4128L13.2225 36.5294L12.2223 46.4145L21.4293 42.4222L26.5032 51L31.5743 42.4231L40.7804 46.4181L39.7821 36.5327L49.6076 34.4186L42.9181 27.0007Z" fill="#DD1100"/>
</svg>
