<svg width="102" height="34" viewBox="0 0 102 34" fill="none" xmlns="http://www.w3.org/2000/svg">
<g clip-path="url(#clip0_2760_3167)">
<circle cx="17" cy="17" r="16.5" fill="#F15048" stroke="#F15048"/>
<mask id="mask0_2760_3167" style="mask-type:alpha" maskUnits="userSpaceOnUse" x="0" y="0" width="34" height="34">
<circle cx="17" cy="17" r="16.5" fill="#FF5A5A" stroke="#F15048"/>
</mask>
<g mask="url(#mask0_2760_3167)">
<path d="M18.0474 25.1596C16.6658 24.8274 15.8036 23.9364 15.746 22.5124C15.7179 21.8133 15.109 21.8969 14.5555 21.8969C14.0146 21.8969 10.9876 21.9129 10.4513 21.8969C10.3784 21.2718 10.4038 21.4904 10.262 20.2708C10.14 19.217 10.1618 19.4057 10.097 18.8443C10.4689 18.8245 14.2876 18.7953 14.5304 18.7953C15.1086 18.7953 15.2426 18.5777 15.1998 18.0421C15.0244 15.982 14.8905 13.9091 14.7593 11.8413C14.7272 11.3456 14.4835 11.0391 13.9828 11.0688C12.5851 11.164 11.1901 11.3069 9.79512 11.4396C9.33457 11.4821 9.3078 11.7949 9.34662 12.1451C9.54208 13.8885 9.72818 15.6318 9.92765 17.3725C10.2543 20.2206 10.5863 23.0669 10.9237 25.9115C10.9556 26.1821 11.5406 31.1115 11.8527 33.615C11.9741 34.5883 11.6033 33.9882 11.4742 34.0002C10.8048 34.062 10.1354 34.1135 9.47675 34.1882C9.23206 34.2155 8.90213 34.4489 8.49125 32.1469C8.22172 29.7912 7.80791 26.4326 7.79229 26.2926C7.4808 23.4652 7.16842 20.6386 6.85514 17.8129C6.56596 15.2198 6.28348 12.6267 5.98092 10.0349C5.87917 9.16577 5.98092 8.98552 6.90869 8.86706C9.02665 8.59282 11.1419 8.27866 13.2693 8.09454C14.2219 8.03685 15.1782 8.10836 16.1102 8.30698C17.5387 8.57865 18.2522 9.60096 18.0501 10.9928C17.9523 11.6546 18.1625 11.9185 18.8359 11.9057C20.6848 11.8709 22.5337 11.8477 24.3825 11.8129C25.163 11.7975 25.9422 11.746 26.7227 11.7473C27.5702 11.7473 27.8567 12.1606 27.5367 12.8996C26.8526 14.4769 26.1818 16.0592 25.4509 17.6172C25.1697 18.2146 25.2286 18.6678 25.6075 19.2047C26.6424 20.6751 27.6157 22.1815 28.6184 23.6763C29.1272 24.4385 28.9518 24.9008 28.0334 25.0373C24.5432 25.5505 21.5041 25.9958 18.0474 25.1596ZM23.428 22.6167C23.9795 22.5742 24.084 22.345 23.7787 21.9008C23.2767 21.1695 22.7679 20.442 22.2324 19.7339C22.0048 19.4557 21.8629 19.1217 21.8229 18.7698C21.7829 18.4179 21.8464 18.0623 22.0062 17.7433C22.3195 17.0378 22.6408 16.3361 22.9433 15.6241C23.1816 15.055 23.0424 14.9095 22.3998 14.9159C21.1788 14.9275 19.9578 14.9327 18.7369 14.903C18.2656 14.8915 18.0675 15.0485 18.1157 15.4914C18.3272 17.4871 18.5387 19.482 18.7503 21.4759C18.8172 22.103 19.1439 22.5137 19.8347 22.5716C21.0455 22.6742 22.2163 22.71 23.428 22.6167Z" fill="white" stroke="#F15048" stroke-width="0.8"/>
</g>
<path d="M9.67715 19.2266H10.6421L10.9008 21.5039H9.65234L9.67715 19.2266Z" fill="white"/>
<path d="M94.0312 22.6715V11.3115H101.663V13.2475H96.2393V16.1755H100.751V17.9675H96.2393V22.6715H94.0312Z" fill="white"/>
<path d="M92.624 13.2475H88.992V22.6715H86.8V13.2475H83.168V11.3115H92.624V13.2475Z" fill="white"/>
<path d="M72.4688 16.912C72.4688 16.2187 72.5914 15.5414 72.8368 14.88C73.0928 14.208 73.4608 13.6 73.9408 13.056C74.4208 12.5014 75.0074 12.064 75.7008 11.744C76.3941 11.4134 77.1834 11.248 78.0688 11.248C79.1141 11.248 80.0154 11.4774 80.7727 11.936C81.5407 12.3947 82.1114 12.992 82.4848 13.728L80.7888 14.896C80.5968 14.4694 80.3461 14.1334 80.0367 13.888C79.7274 13.632 79.3967 13.456 79.0447 13.36C78.6927 13.2534 78.3461 13.2 78.0048 13.2C77.4501 13.2 76.9647 13.312 76.5487 13.536C76.1434 13.76 75.8021 14.0534 75.5247 14.416C75.2474 14.7787 75.0394 15.184 74.9007 15.632C74.7727 16.08 74.7087 16.528 74.7087 16.976C74.7087 17.4774 74.7887 17.9627 74.9487 18.432C75.1087 18.8907 75.3327 19.3014 75.6207 19.664C75.9194 20.016 76.2714 20.2987 76.6767 20.512C77.0927 20.7147 77.5461 20.816 78.0367 20.816C78.3887 20.816 78.7461 20.7574 79.1088 20.64C79.4714 20.5227 79.8074 20.336 80.1168 20.08C80.4261 19.824 80.6661 19.4934 80.8367 19.088L82.6448 20.128C82.4208 20.6934 82.0528 21.1734 81.5408 21.568C81.0394 21.9627 80.4741 22.2614 79.8448 22.464C79.2154 22.6667 78.5914 22.768 77.9727 22.768C77.1621 22.768 76.4208 22.6027 75.7488 22.272C75.0768 21.9307 74.4954 21.4827 74.0047 20.928C73.5247 20.3627 73.1461 19.7334 72.8687 19.04C72.6021 18.336 72.4688 17.6267 72.4688 16.912Z" fill="white"/>
<path d="M63.1209 22.784C62.5129 22.784 61.9582 22.7093 61.4569 22.56C60.9662 22.4 60.5342 22.176 60.1609 21.888C59.7982 21.5893 59.5102 21.2373 59.2969 20.832L60.4489 19.376C60.5555 19.6106 60.7262 19.84 60.9609 20.064C61.1955 20.288 61.4889 20.4693 61.8409 20.608C62.1929 20.7466 62.5929 20.816 63.0409 20.816C63.4782 20.816 63.8569 20.752 64.1769 20.624C64.4969 20.496 64.7422 20.32 64.9129 20.096C65.0942 19.8613 65.1849 19.5786 65.1849 19.248C65.1849 18.896 65.0729 18.5973 64.8489 18.352C64.6355 18.1066 64.3155 17.92 63.8889 17.792C63.4622 17.664 62.9395 17.6 62.3209 17.6H61.7929V16H62.3529C63.1209 16 63.7342 15.8666 64.1929 15.6C64.6622 15.3333 64.8969 14.9546 64.8969 14.464C64.8969 14.1653 64.8169 13.9093 64.6569 13.696C64.4969 13.472 64.2835 13.3066 64.0169 13.2C63.7502 13.0826 63.4569 13.024 63.1369 13.024C62.6035 13.024 62.1289 13.152 61.7129 13.408C61.3075 13.6533 60.9982 13.9733 60.7849 14.368L59.3929 12.816C59.6275 12.4746 59.9475 12.1866 60.3529 11.952C60.7582 11.7066 61.2115 11.5146 61.7129 11.376C62.2249 11.2373 62.7529 11.168 63.2969 11.168C64.0542 11.168 64.7262 11.3013 65.3129 11.568C65.8995 11.824 66.3582 12.176 66.6889 12.624C67.0195 13.072 67.1849 13.584 67.1849 14.16C67.1849 14.5866 67.0942 14.976 66.9129 15.328C66.7422 15.68 66.4969 15.9733 66.1769 16.208C65.8569 16.4426 65.4782 16.6133 65.0409 16.72C65.5102 16.7946 65.9209 16.9706 66.2729 17.248C66.6355 17.5146 66.9129 17.856 67.1049 18.272C67.3075 18.6773 67.4089 19.12 67.4089 19.6C67.4089 20.272 67.2169 20.8426 66.8329 21.312C66.4595 21.7813 65.9475 22.144 65.2969 22.4C64.6569 22.656 63.9315 22.784 63.1209 22.784Z" fill="white"/>
<path d="M58.5506 16.1438C57.8999 16.1438 57.3186 16.2718 56.8066 16.5278C56.2946 16.7731 55.9266 17.1304 55.7026 17.5998V22.6718H53.5586V14.2878H55.5266V16.0798C55.8253 15.5038 56.2039 15.0504 56.6626 14.7198C57.1213 14.3891 57.6066 14.2078 58.1186 14.1758C58.2359 14.1758 58.3266 14.1758 58.3906 14.1758C58.4546 14.1758 58.5079 14.1811 58.5506 14.1918V16.1438Z" fill="white"/>
<path d="M48.432 22.8316C47.7493 22.8316 47.136 22.7196 46.592 22.4956C46.048 22.2609 45.584 21.9409 45.2 21.5356C44.816 21.1196 44.5173 20.6502 44.304 20.1276C44.1013 19.6049 44 19.0556 44 18.4796C44 17.6902 44.176 16.9702 44.528 16.3196C44.8907 15.6582 45.4027 15.1302 46.064 14.7356C46.7253 14.3409 47.5093 14.1436 48.416 14.1436C49.3227 14.1436 50.1013 14.3409 50.752 14.7356C51.4027 15.1302 51.888 15.6476 52.208 16.2876L50.112 16.9276C49.9307 16.6182 49.6907 16.3836 49.392 16.2236C49.0933 16.0529 48.7627 15.9676 48.4 15.9676C47.9947 15.9676 47.6213 16.0742 47.28 16.2876C46.9493 16.4902 46.688 16.7836 46.496 17.1676C46.304 17.5409 46.208 17.9782 46.208 18.4796C46.208 18.9702 46.304 19.4076 46.496 19.7916C46.6987 20.1649 46.9653 20.4636 47.296 20.6876C47.6267 20.9009 47.9947 21.0076 48.4 21.0076C48.656 21.0076 48.896 20.9649 49.12 20.8796C49.3547 20.7942 49.5627 20.6769 49.744 20.5276C49.9253 20.3782 50.0587 20.2076 50.144 20.0156L52.24 20.6556C52.048 21.0716 51.7653 21.4449 51.392 21.7756C51.0293 22.1062 50.5973 22.3676 50.096 22.5596C49.6053 22.7409 49.0507 22.8316 48.432 22.8316Z" fill="white"/>
</g>
<defs>
<clipPath id="clip0_2760_3167">
<rect width="102" height="34" fill="white"/>
</clipPath>
</defs>
</svg>